Commissioner-Black2.ufo
<glyph name="percent" format="2">
  <advance width="2008"/>
  <unicode hex="0025"/>
  <outline>
    <contour>
      <point x="368" y="0" type="curve"/>
      <point x="752" y="0" type="line"/>
      <point x="840" y="146"/>
      <point x="920" y="278"/>
      <point x="1032" y="460" type="curve"/>
      <point x="1334" y="954" type="line"/>
      <point x="1446" y="1140"/>
      <point x="1530" y="1276"/>
      <point x="1620" y="1426" type="curve"/>
      <point x="1236" y="1426" type="line"/>
      <point x="1146" y="1276"/>
      <point x="1062" y="1140"/>
      <point x="950" y="954" type="curve"/>
      <point x="648" y="460" type="line"/>
      <point x="536" y="278"/>
      <point x="456" y="146"/>
    </contour>
    <contour>
      <point x="466" y="708" type="curve" smooth="yes"/>
      <point x="724" y="708"/>
      <point x="892" y="846"/>
      <point x="892" y="1086" type="curve" smooth="yes"/>
      <point x="892" y="1298"/>
      <point x="724" y="1458"/>
      <point x="466" y="1458" type="curve" smooth="yes"/>
      <point x="208" y="1458"/>
      <point x="40" y="1298"/>
      <point x="40" y="1086" type="curve" smooth="yes"/>
      <point x="40" y="846"/>
      <point x="208" y="708"/>
    </contour>
    <contour>
      <point x="466" y="970" type="curve"/>
      <point x="398" y="970"/>
      <point x="358" y="1014"/>
      <point x="358" y="1082" type="curve" smooth="yes"/>
      <point x="358" y="1144"/>
      <point x="398" y="1194"/>
      <point x="466" y="1194" type="curve"/>
      <point x="534" y="1194"/>
      <point x="574" y="1140"/>
      <point x="574" y="1082" type="curve" smooth="yes"/>
      <point x="574" y="1014"/>
      <point x="534" y="970"/>
    </contour>
    <contour>
      <point x="1522" y="-32" type="curve" smooth="yes"/>
      <point x="1780" y="-32"/>
      <point x="1948" y="106"/>
      <point x="1948" y="346" type="curve" smooth="yes"/>
      <point x="1948" y="558"/>
      <point x="1780" y="718"/>
      <point x="1522" y="718" type="curve" smooth="yes"/>
      <point x="1264" y="718"/>
      <point x="1096" y="558"/>
      <point x="1096" y="346" type="curve" smooth="yes"/>
      <point x="1096" y="106"/>
      <point x="1264" y="-32"/>
    </contour>
    <contour>
      <point x="1522" y="230" type="curve"/>
      <point x="1454" y="230"/>
      <point x="1414" y="274"/>
      <point x="1414" y="342" type="curve" smooth="yes"/>
      <point x="1414" y="404"/>
      <point x="1454" y="454"/>
      <point x="1522" y="454" type="curve"/>
      <point x="1590" y="454"/>
      <point x="1630" y="400"/>
      <point x="1630" y="342" type="curve" smooth="yes"/>
      <point x="1630" y="274"/>
      <point x="1590" y="230"/>
    </contour>
  </outline>
</glyph>
<glyph name="ampersand" format="2">
  <advance width="1594"/>
  <unicode hex="0026"/>
  <outline>
    <contour>
      <point x="1062" y="0" type="curve"/>
      <point x="1594" y="0" type="line"/>
      <point x="1448" y="164"/>
      <point x="1304" y="328"/>
      <point x="1158" y="492" type="curve"/>
      <point x="772" y="928" type="line" smooth="yes"/>
      <point x="708" y="1000"/>
      <point x="676" y="1044"/>
      <point x="676" y="1104" type="curve" smooth="yes"/>
      <point x="676" y="1164"/>
      <point x="714" y="1196"/>
      <point x="760" y="1196" type="curve"/>
      <point x="808" y="1196"/>
      <point x="838" y="1152"/>
      <point x="838" y="1100" type="curve" smooth="yes"/>
      <point x="838" y="1038"/>
      <point x="800" y="976"/>
      <point x="730" y="930" type="curve"/>
      <point x="890" y="752" type="line"/>
      <point x="1010" y="816"/>
      <point x="1184" y="912"/>
      <point x="1184" y="1122" type="curve" smooth="yes"/>
      <point x="1184" y="1336"/>
      <point x="1006" y="1458"/>
      <point x="738" y="1458" type="curve" smooth="yes"/>
      <point x="472" y="1458"/>
      <point x="256" y="1338"/>
      <point x="256" y="1088" type="curve" smooth="yes"/>
      <point x="256" y="960"/>
      <point x="316" y="850"/>
      <point x="412" y="740" type="curve" smooth="yes"/>
      <point x="822" y="272" type="line"/>
      <point x="902" y="182"/>
      <point x="982" y="90"/>
    </contour>
    <contour>
      <point x="500" y="-28" type="curve" smooth="yes"/>
      <point x="686" y="-28"/>
      <point x="818" y="38"/>
      <point x="912" y="146" type="curve"/>
      <point x="944" y="146" type="line"/>
      <point x="946" y="188" type="line"/>
      <point x="768" y="372" type="line"/>
      <point x="732" y="334"/>
      <point x="672" y="310"/>
      <point x="612" y="310" type="curve"/>
      <point x="518" y="310"/>
      <point x="470" y="372"/>
      <point x="470" y="446" type="curve" smooth="yes"/>
      <point x="470" y="498"/>
      <point x="494" y="556"/>
      <point x="556" y="602" type="curve"/>
      <point x="374" y="824" type="line"/>
      <point x="190" y="742"/>
      <point x="40" y="604"/>
      <point x="40" y="372" type="curve" smooth="yes"/>
      <point x="40" y="142"/>
      <point x="194" y="-28"/>
    </contour>
    <contour>
      <point x="1224" y="330" type="line"/>
      <point x="1334" y="444"/>
      <point x="1442" y="558"/>
      <point x="1552" y="672" type="curve"/>
      <point x="1204" y="898" type="line"/>
      <point x="1132" y="788"/>
      <point x="1062" y="676"/>
      <point x="990" y="566" type="curve"/>
    </contour>
  </outline>
</glyph>
<glyph name="zero" format="2">
  <advance width="1356"/>
  <unicode hex="0030"/>
  <outline>
    <contour>
      <point x="684" y="-30" type="curve" smooth="yes"/>
      <point x="1108" y="-30"/>
      <point x="1296" y="262"/>
      <point x="1296" y="690" type="curve" smooth="yes"/>
      <point x="1296" y="1106"/>
      <point x="1118" y="1412"/>
      <point x="674" y="1412" type="curve" smooth="yes"/>
      <point x="232" y="1412"/>
      <point x="60" y="1106"/>
      <point x="60" y="688" type="curve" smooth="yes"/>
      <point x="60" y="296"/>
      <point x="222" y="-30"/>
    </contour>
    <contour>
      <point x="680" y="344" type="curve"/>
      <point x="568" y="344"/>
      <point x="534" y="486"/>
      <point x="534" y="690" type="curve" smooth="yes"/>
      <point x="534" y="902"/>
      <point x="574" y="1036"/>
      <point x="680" y="1036" type="curve"/>
      <point x="782" y="1036"/>
      <point x="824" y="900"/>
      <point x="824" y="690" type="curve" smooth="yes"/>
      <point x="824" y="486"/>
      <point x="788" y="344"/>
    </contour>
  </outline>
</glyph>
<glyph name="six" format="2">
  <advance width="1256"/>
  <unicode hex="0036"/>
  <outline>
    <contour>
      <point x="662" y="-32" type="curve" smooth="yes"/>
      <point x="1044" y="-32"/>
      <point x="1200" y="210"/>
      <point x="1200" y="458" type="curve" smooth="yes"/>
      <point x="1200" y="718"/>
      <point x="1026" y="864"/>
      <point x="796" y="864" type="curve" smooth="yes"/>
      <point x="678" y="864"/>
      <point x="588" y="826"/>
      <point x="540" y="790" type="curve"/>
      <point x="500" y="790" type="line"/>
      <point x="392" y="676"/>
      <point x="388" y="648"/>
      <point x="504" y="528" type="curve"/>
      <point x="546" y="574"/>
      <point x="600" y="582"/>
      <point x="642" y="582" type="curve"/>
      <point x="708" y="582"/>
      <point x="746" y="538"/>
      <point x="746" y="468" type="curve" smooth="yes"/>
      <point x="746" y="396"/>
      <point x="706" y="348"/>
      <point x="640" y="348" type="curve"/>
      <point x="568" y="348"/>
      <point x="506" y="426"/>
      <point x="506" y="680" type="curve" smooth="yes"/>
      <point x="506" y="934"/>
      <point x="546" y="1032"/>
      <point x="728" y="1032" type="curve"/>
      <point x="836" y="1032"/>
      <point x="966" y="998"/>
      <point x="1078" y="940" type="curve"/>
      <point x="1112" y="1344" type="line"/>
      <point x="986" y="1382"/>
      <point x="854" y="1412"/>
      <point x="696" y="1412" type="curve" smooth="yes"/>
      <point x="342" y="1412"/>
      <point x="60" y="1232"/>
      <point x="60" y="690" type="curve" smooth="yes"/>
      <point x="60" y="210"/>
      <point x="254" y="-32"/>
    </contour>
  </outline>
</glyph>
<glyph name="eight" format="2">
  <advance width="1262"/>
  <unicode hex="0038"/>
  <outline>
    <contour>
      <point x="632" y="-32" type="curve" smooth="yes"/>
      <point x="1030" y="-32"/>
      <point x="1206" y="142"/>
      <point x="1206" y="390" type="curve" smooth="yes"/>
      <point x="1206" y="600"/>
      <point x="1078" y="698"/>
      <point x="938" y="728" type="curve"/>
      <point x="938" y="760" type="line"/>
      <point x="1076" y="788"/>
      <point x="1176" y="882"/>
      <point x="1176" y="1042" type="curve" smooth="yes"/>
      <point x="1176" y="1264"/>
      <point x="982" y="1412"/>
      <point x="632" y="1412" type="curve" smooth="yes"/>
      <point x="280" y="1412"/>
      <point x="86" y="1264"/>
      <point x="86" y="1042" type="curve" smooth="yes"/>
      <point x="86" y="882"/>
      <point x="186" y="788"/>
      <point x="324" y="760" type="curve"/>
      <point x="324" y="728" type="line"/>
      <point x="186" y="698"/>
      <point x="56" y="602"/>
      <point x="56" y="390" type="curve" smooth="yes"/>
      <point x="56" y="142"/>
      <point x="232" y="-32"/>
    </contour>
    <contour>
      <point x="632" y="336" type="curve"/>
      <point x="550" y="336"/>
      <point x="510" y="382"/>
      <point x="510" y="442" type="curve" smooth="yes"/>
      <point x="510" y="506"/>
      <point x="554" y="548"/>
      <point x="630" y="548" type="curve"/>
      <point x="706" y="548"/>
      <point x="752" y="506"/>
      <point x="752" y="442" type="curve" smooth="yes"/>
      <point x="752" y="382"/>
      <point x="712" y="336"/>
    </contour>
    <contour>
      <point x="632" y="848" type="curve"/>
      <point x="568" y="848"/>
      <point x="530" y="892"/>
      <point x="530" y="956" type="curve" smooth="yes"/>
      <point x="530" y="1028"/>
      <point x="572" y="1066"/>
      <point x="632" y="1066" type="curve"/>
      <point x="692" y="1066"/>
      <point x="736" y="1028"/>
      <point x="736" y="956" type="curve" smooth="yes"/>
      <point x="736" y="892"/>
      <point x="696" y="848"/>
    </contour>
  </outline>
</glyph>
<glyph name="equal" format="2">
  <advance width="1180"/>
  <unicode hex="003D"/>
  <outline>
    <contour>
      <point x="100" y="168" type="line"/>
      <point x="250" y="168"/>
      <point x="402" y="168"/>
      <point x="516" y="168" type="curve"/>
      <point x="664" y="168" type="line"/>
      <point x="778" y="168"/>
      <point x="930" y="168"/>
      <point x="1080" y="168" type="curve"/>
      <point x="1080" y="548" type="line"/>
      <point x="930" y="548"/>
      <point x="778" y="548"/>
      <point x="664" y="548" type="curve"/>
      <point x="516" y="548" type="line"/>
      <point x="402" y="548"/>
      <point x="250" y="548"/>
      <point x="100" y="548" type="curve"/>
    </contour>
    <contour>
      <point x="100" y="688" type="line"/>
      <point x="250" y="688"/>
      <point x="402" y="688"/>
      <point x="516" y="688" type="curve"/>
      <point x="664" y="688" type="line"/>
      <point x="778" y="688"/>
      <point x="930" y="688"/>
      <point x="1080" y="688" type="curve"/>
      <point x="1080" y="1068" type="line"/>
      <point x="930" y="1068"/>
      <point x="778" y="1068"/>
      <point x="664" y="1068" type="curve"/>
      <point x="516" y="1068" type="line"/>
      <point x="402" y="1068"/>
      <point x="250" y="1068"/>
      <point x="100" y="1068" type="curve"/>
    </contour>
  </outline>
</glyph>
<glyph name="greater" format="2">
  <advance width="1180"/>
  <unicode hex="003E"/>
  <outline>
    <contour>
      <point x="80" y="66" type="line"/>
      <point x="230" y="118"/>
      <point x="372" y="170"/>
      <point x="496" y="214" type="curve"/>
      <point x="684" y="280" type="line"/>
      <point x="808" y="324"/>
      <point x="950" y="376"/>
      <point x="1100" y="428" type="curve"/>
      <point x="1100" y="808" type="line"/>
      <point x="950" y="860"/>
      <point x="808" y="912"/>
      <point x="684" y="956" type="curve"/>
      <point x="496" y="1022" type="line"/>
      <point x="372" y="1066"/>
      <point x="230" y="1118"/>
      <point x="80" y="1170" type="curve"/>
      <point x="80" y="770" type="line"/>
      <point x="174" y="740"/>
      <point x="268" y="710"/>
      <point x="362" y="680" type="curve"/>
      <point x="510" y="634" type="line"/>
      <point x="510" y="602" type="line"/>
      <point x="362" y="556" type="line"/>
      <point x="268" y="526"/>
      <point x="174" y="496"/>
      <point x="80" y="466" type="curve"/>
    </contour>
  </outline>
</glyph>
<glyph name="D" format="2">
  <advance width="1460"/>
  <unicode hex="0044"/>
  <anchor x="710" y="0" name="bottom"/>
  <anchor x="730" y="714" name="center"/>
  <anchor x="710" y="1426" name="top"/>
  <outline>
    <contour>
      <point x="92" y="0" type="curve"/>
      <point x="246" y="0"/>
      <point x="424" y="0"/>
      <point x="638" y="0" type="curve"/>
      <point x="1214" y="0"/>
      <point x="1412" y="312"/>
      <point x="1412" y="716" type="curve" smooth="yes"/>
      <point x="1412" y="1174"/>
      <point x="1160" y="1426"/>
      <point x="732" y="1426" type="curve"/>
      <point x="496" y="1426"/>
      <point x="248" y="1426"/>
      <point x="92" y="1426" type="curve"/>
      <point x="92" y="1272"/>
      <point x="92" y="1138"/>
      <point x="92" y="948" type="curve"/>
      <point x="92" y="458" type="line"/>
      <point x="92" y="276"/>
      <point x="92" y="148"/>
    </contour>
    <contour>
      <point x="584" y="386" type="line"/>
      <point x="584" y="440"/>
      <point x="584" y="500"/>
      <point x="584" y="586" type="curve"/>
      <point x="584" y="824" type="line"/>
      <point x="584" y="918"/>
      <point x="584" y="980"/>
      <point x="584" y="1040" type="curve"/>
      <point x="646" y="1040" type="line"/>
      <point x="826" y="1040"/>
      <point x="900" y="910"/>
      <point x="900" y="722" type="curve" smooth="yes"/>
      <point x="900" y="528"/>
      <point x="832" y="386"/>
      <point x="636" y="386" type="curve"/>
    </contour>
  </outline>
</glyph>
<glyph name="E" format="2">
  <advance width="1200"/>
  <unicode hex="0045"/>
  <anchor x="606" y="0" name="bottom"/>
  <anchor x="1120" y="0" name="ogonek"/>
  <anchor x="606" y="1426" name="top"/>
  <anchor x="66" y="1426" name="topleft"/>
  <outline>
    <contour>
      <point x="92" y="0" type="curve"/>
      <point x="572" y="0" type="line"/>
      <point x="572" y="80" type="line"/>
      <point x="572" y="228"/>
      <point x="572" y="356"/>
      <point x="572" y="538" type="curve"/>
      <point x="572" y="868" type="line"/>
      <point x="572" y="1058"/>
      <point x="572" y="1192"/>
      <point x="572" y="1346" type="curve"/>
      <point x="572" y="1426" type="line"/>
      <point x="92" y="1426" type="line"/>
      <point x="92" y="1272"/>
      <point x="92" y="1138"/>
      <point x="92" y="948" type="curve"/>
      <point x="92" y="458" type="line"/>
      <point x="92" y="276"/>
      <point x="92" y="148"/>
    </contour>
    <contour>
      <point x="520" y="0" type="line"/>
      <point x="1120" y="0" type="line"/>
      <point x="1120" y="386" type="line"/>
      <point x="1002" y="386"/>
      <point x="876" y="386"/>
      <point x="734" y="386" type="curve"/>
      <point x="520" y="386" type="line"/>
    </contour>
    <contour>
      <point x="458" y="542" type="line"/>
      <point x="702" y="542" type="line"/>
      <point x="860" y="542"/>
      <point x="968" y="542"/>
      <point x="1084" y="542" type="curve"/>
      <point x="1084" y="886" type="line"/>
      <point x="974" y="886"/>
      <point x="866" y="886"/>
      <point x="702" y="886" type="curve"/>
      <point x="458" y="886" type="line"/>
    </contour>
    <contour>
      <point x="488" y="1040" type="line"/>
      <point x="702" y="1040" type="line"/>
      <point x="874" y="1040"/>
      <point x="994" y="1040"/>
      <point x="1106" y="1040" type="curve"/>
      <point x="1106" y="1426" type="line"/>
      <point x="488" y="1426" type="line"/>
    </contour>
  </outline>
</glyph>
<glyph name="H" format="2">
  <advance width="1502"/>
  <unicode hex="0048"/>
  <anchor x="752" y="0" name="bottom"/>
  <anchor x="752" y="714" name="center"/>
  <anchor x="752" y="1426" name="top"/>
  <anchor x="76" y="1426" name="topleft"/>
  <outline>
    <contour>
      <point x="918" y="0" type="curve"/>
      <point x="1410" y="0" type="line"/>
      <point x="1410" y="148"/>
      <point x="1410" y="276"/>
      <point x="1410" y="458" type="curve"/>
      <point x="1410" y="948" type="line"/>
      <point x="1410" y="1138"/>
      <point x="1410" y="1272"/>
      <point x="1410" y="1426" type="curve"/>
      <point x="918" y="1426" type="line"/>
      <point x="918" y="1272"/>
      <point x="918" y="1138"/>
      <point x="918" y="948" type="curve"/>
      <point x="918" y="458" type="line"/>
      <point x="918" y="276"/>
      <point x="918" y="148"/>
    </contour>
    <contour>
      <point x="92" y="0" type="curve"/>
      <point x="584" y="0" type="line"/>
      <point x="584" y="148"/>
      <point x="584" y="276"/>
      <point x="584" y="458" type="curve"/>
      <point x="584" y="948" type="line"/>
      <point x="584" y="1138"/>
      <point x="584" y="1272"/>
      <point x="584" y="1426" type="curve"/>
      <point x="92" y="1426" type="line"/>
      <point x="92" y="1272"/>
      <point x="92" y="1138"/>
      <point x="92" y="948" type="curve"/>
      <point x="92" y="458" type="line"/>
      <point x="92" y="276"/>
      <point x="92" y="148"/>
    </contour>
    <contour>
      <point x="464" y="512" type="line"/>
      <point x="1044" y="512" type="line"/>
      <point x="1044" y="916" type="line"/>
      <point x="464" y="916" type="line"/>
    </contour>
  </outline>
</glyph>
<glyph name="I" format="2">
  <advance width="706"/>
  <unicode hex="0049"/>
  <anchor x="344" y="0" name="bottom"/>
  <anchor x="604" y="0" name="ogonek"/>
  <anchor x="344" y="1426" name="top"/>
  <anchor x="52" y="1426" name="topleft"/>
  <outline>
    <contour>
      <point x="102" y="0" type="curve"/>
      <point x="604" y="0" type="line"/>
      <point x="604" y="148"/>
      <point x="604" y="276"/>
      <point x="604" y="458" type="curve"/>
      <point x="604" y="948" type="line"/>
      <point x="604" y="1138"/>
      <point x="604" y="1272"/>
      <point x="604" y="1426" type="curve"/>
      <point x="102" y="1426" type="line"/>
      <point x="102" y="1272"/>
      <point x="102" y="1138"/>
      <point x="102" y="948" type="curve"/>
      <point x="102" y="458" type="line"/>
      <point x="102" y="276"/>
      <point x="102" y="148"/>
    </contour>
  </outline>
</glyph>
<glyph name="L" format="2">
  <advance width="1148"/>
  <unicode hex="004C"/>
  <anchor x="596" y="0" name="bottom"/>
  <anchor x="910" y="720" name="center"/>
  <anchor x="514" y="1426" name="top"/>
  <anchor x="652" y="1004" name="topright"/>
  <outline>
    <contour>
      <point x="92" y="0" type="curve"/>
      <point x="584" y="0" type="line"/>
      <point x="584" y="80" type="line"/>
      <point x="584" y="228"/>
      <point x="584" y="356"/>
      <point x="584" y="538" type="curve"/>
      <point x="584" y="948" type="line"/>
      <point x="584" y="1138"/>
      <point x="584" y="1272"/>
      <point x="584" y="1426" type="curve"/>
      <point x="92" y="1426" type="line"/>
      <point x="92" y="1272"/>
      <point x="92" y="1138"/>
      <point x="92" y="948" type="curve"/>
      <point x="92" y="458" type="line"/>
      <point x="92" y="276"/>
      <point x="92" y="148"/>
    </contour>
    <contour>
      <point x="520" y="0" type="line"/>
      <point x="1100" y="0" type="line"/>
      <point x="1100" y="424" type="line"/>
      <point x="976" y="424"/>
      <point x="870" y="424"/>
      <point x="688" y="424" type="curve"/>
      <point x="520" y="424" type="line"/>
    </contour>
  </outline>
</glyph>
<glyph name="M" format="2">
  <advance width="1940"/>
  <unicode hex="004D"/>
  <anchor x="970" y="0" name="bottom"/>
  <anchor x="970" y="1426" name="top"/>
  <outline>
    <contour>
      <point x="64" y="0" type="curve"/>
      <point x="516" y="0" type="line"/>
      <point x="532" y="142"/>
      <point x="548" y="270"/>
      <point x="562" y="382" type="curve"/>
      <point x="592" y="624" type="line"/>
      <point x="624" y="624" type="line"/>
      <point x="708" y="366" type="line"/>
      <point x="748" y="242"/>
      <point x="790" y="116"/>
      <point x="828" y="0" type="curve"/>
      <point x="1150" y="0" type="line"/>
      <point x="1178" y="114"/>
      <point x="1208" y="238"/>
      <point x="1238" y="366" type="curve"/>
      <point x="1300" y="624" type="line"/>
      <point x="1332" y="624" type="line"/>
      <point x="1362" y="382" type="line"/>
      <point x="1376" y="270"/>
      <point x="1392" y="142"/>
      <point x="1410" y="0" type="curve"/>
      <point x="1876" y="0" type="line"/>
      <point x="1858" y="146"/>
      <point x="1840" y="284"/>
      <point x="1816" y="458" type="curve"/>
      <point x="1752" y="944" type="line"/>
      <point x="1730" y="1118"/>
      <point x="1710" y="1270"/>
      <point x="1688" y="1426" type="curve"/>
      <point x="1200" y="1426" type="line"/>
      <point x="1160" y="1298"/>
      <point x="1128" y="1206"/>
      <point x="1094" y="1100" type="curve"/>
      <point x="994" y="794" type="line"/>
      <point x="964" y="794" type="line"/>
      <point x="854" y="1100" type="line"/>
      <point x="816" y="1206"/>
      <point x="782" y="1304"/>
      <point x="738" y="1426" type="curve"/>
      <point x="242" y="1426" type="line"/>
      <point x="222" y="1268"/>
      <point x="204" y="1116"/>
      <point x="182" y="944" type="curve"/>
      <point x="122" y="458" type="line"/>
      <point x="100" y="286"/>
      <point x="82" y="140"/>
    </contour>
  </outline>
</glyph>
<glyph name="P" format="2">
  <advance width="1346"/>
  <unicode hex="0050"/>
  <outline>
    <contour>
      <point x="810" y="426" type="curve"/>
      <point x="1154" y="426"/>
      <point x="1306" y="626"/>
      <point x="1306" y="932" type="curve" smooth="yes"/>
      <point x="1306" y="1320"/>
      <point x="1106" y="1426"/>
      <point x="736" y="1426" type="curve"/>
      <point x="444" y="1426"/>
      <point x="214" y="1426"/>
      <point x="92" y="1426" type="curve"/>
      <point x="544" y="1056" type="line"/>
      <point x="702" y="1056" type="line" smooth="yes"/>
      <point x="768" y="1056"/>
      <point x="808" y="1008"/>
      <point x="808" y="914" type="curve" smooth="yes"/>
      <point x="808" y="818"/>
      <point x="774" y="770"/>
      <point x="690" y="770" type="curve" smooth="yes"/>
      <point x="450" y="770" type="line"/>
      <point x="516" y="426" type="line"/>
      <point x="590" y="426"/>
      <point x="716" y="426"/>
    </contour>
    <contour>
      <point x="92" y="0" type="curve"/>
      <point x="574" y="0" type="line"/>
      <point x="574" y="148"/>
      <point x="574" y="276"/>
      <point x="574" y="458" type="curve"/>
      <point x="574" y="868" type="line"/>
      <point x="574" y="1058"/>
      <point x="574" y="1192"/>
      <point x="574" y="1346" type="curve"/>
      <point x="92" y="1426" type="line"/>
      <point x="92" y="1272"/>
      <point x="92" y="1138"/>
      <point x="92" y="948" type="curve"/>
      <point x="92" y="458" type="line"/>
      <point x="92" y="276"/>
      <point x="92" y="148"/>
    </contour>
  </outline>
</glyph>
<glyph name="R" format="2">
  <advance width="1430"/>
  <unicode hex="0052"/>
  <anchor x="712" y="0" name="bottom"/>
  <anchor x="672" y="1426" name="top"/>
  <outline>
    <contour>
      <point x="866" y="0" type="curve"/>
      <point x="1416" y="0" type="line"/>
      <point x="1356" y="110"/>
      <point x="1258" y="288"/>
      <point x="1184" y="422" type="curve"/>
      <point x="1024" y="714" type="line"/>
      <point x="822" y="564" type="line"/>
      <point x="1152" y="564"/>
      <point x="1306" y="724"/>
      <point x="1306" y="986" type="curve" smooth="yes"/>
      <point x="1306" y="1332"/>
      <point x="1084" y="1426"/>
      <point x="710" y="1426" type="curve"/>
      <point x="498" y="1426"/>
      <point x="236" y="1426"/>
      <point x="92" y="1426" type="curve"/>
      <point x="420" y="1058" type="line"/>
      <point x="696" y="1058" type="line" smooth="yes"/>
      <point x="762" y="1058"/>
      <point x="800" y="1010"/>
      <point x="800" y="928" type="curve" smooth="yes"/>
      <point x="800" y="818"/>
      <point x="746" y="796"/>
      <point x="686" y="796" type="curve" smooth="yes"/>
      <point x="484" y="796" type="line"/>
      <point x="484" y="502" type="line"/>
      <point x="820" y="502" type="line"/>
      <point x="532" y="682" type="line"/>
      <point x="728" y="282" type="line"/>
      <point x="772" y="192"/>
      <point x="816" y="102"/>
    </contour>
    <contour>
      <point x="92" y="0" type="curve"/>
      <point x="574" y="0" type="line"/>
      <point x="574" y="148"/>
      <point x="574" y="276"/>
      <point x="574" y="458" type="curve"/>
      <point x="574" y="868" type="line"/>
      <point x="574" y="1058"/>
      <point x="574" y="1192"/>
      <point x="574" y="1346" type="curve"/>
      <point x="92" y="1426" type="line"/>
      <point x="92" y="1272"/>
      <point x="92" y="1138"/>
      <point x="92" y="948" type="curve"/>
      <point x="92" y="458" type="line"/>
      <point x="92" y="276"/>
      <point x="92" y="148"/>
    </contour>
  </outline>
</glyph>
<glyph name="S" format="2">
  <advance width="1232"/>
  <unicode hex="0053"/>
  <anchor x="616" y="0" name="bottom"/>
  <anchor x="616" y="1426" name="top"/>
  <outline>
    <contour>
      <point x="588" y="-32" type="curve" smooth="yes"/>
      <point x="1014" y="-32"/>
      <point x="1194" y="136"/>
      <point x="1194" y="432" type="curve" smooth="yes"/>
      <point x="1194" y="680"/>
      <point x="1082" y="784"/>
      <point x="742" y="876" type="curve" smooth="yes"/>
      <point x="624" y="908"/>
      <point x="568" y="930"/>
      <point x="568" y="990" type="curve" smooth="yes"/>
      <point x="568" y="1046"/>
      <point x="616" y="1070"/>
      <point x="696" y="1070" type="curve"/>
      <point x="798" y="1070"/>
      <point x="950" y="1032"/>
      <point x="1084" y="956" type="curve"/>
      <point x="1116" y="1364" type="line"/>
      <point x="990" y="1414"/>
      <point x="776" y="1458"/>
      <point x="590" y="1458" type="curve" smooth="yes"/>
      <point x="216" y="1458"/>
      <point x="50" y="1276"/>
      <point x="50" y="996" type="curve" smooth="yes"/>
      <point x="50" y="732"/>
      <point x="196" y="626"/>
      <point x="442" y="562" type="curve" smooth="yes"/>
      <point x="582" y="526"/>
      <point x="678" y="500"/>
      <point x="678" y="432" type="curve" smooth="yes"/>
      <point x="678" y="376"/>
      <point x="638" y="348"/>
      <point x="546" y="348" type="curve"/>
      <point x="428" y="348"/>
      <point x="252" y="392"/>
      <point x="108" y="466" type="curve"/>
      <point x="76" y="64" type="line"/>
      <point x="186" y="14"/>
      <point x="412" y="-32"/>
    </contour>
  </outline>
</glyph>
<glyph name="Y" format="2">
  <advance width="1426"/>
  <unicode hex="0059"/>
  <anchor x="718" y="0" name="bottom"/>
  <anchor x="718" y="1426" name="top"/>
  <anchor x="36" y="1426" name="topleft"/>
  <outline>
    <contour>
      <point x="482" y="444" type="line"/>
      <point x="952" y="444" type="line"/>
      <point x="1224" y="1040" type="line" smooth="yes"/>
      <point x="1280" y="1164"/>
      <point x="1342" y="1296"/>
      <point x="1400" y="1426" type="curve"/>
      <point x="862" y="1426" type="line"/>
      <point x="828" y="1292"/>
      <point x="810" y="1224"/>
      <point x="780" y="1114" type="curve" smooth="yes"/>
      <point x="736" y="948" type="line"/>
      <point x="700" y="948" type="line"/>
      <point x="658" y="1116" type="line" smooth="yes"/>
      <point x="632" y="1224"/>
      <point x="616" y="1290"/>
      <point x="582" y="1426" type="curve"/>
      <point x="26" y="1426" type="line"/>
      <point x="98" y="1276"/>
      <point x="146" y="1168"/>
      <point x="206" y="1040" type="curve" smooth="yes"/>
    </contour>
    <contour>
      <point x="472" y="0" type="curve"/>
      <point x="964" y="0" type="line"/>
      <point x="964" y="148"/>
      <point x="964" y="276"/>
      <point x="964" y="458" type="curve"/>
      <point x="964" y="858" type="line"/>
      <point x="472" y="858" type="line"/>
      <point x="472" y="458" type="line"/>
      <point x="472" y="276"/>
      <point x="472" y="148"/>
    </contour>
  </outline>
</glyph>
<glyph name="bracketleft" format="2">
  <advance width="890"/>
  <unicode hex="005B"/>
  <outline>
    <contour>
      <point x="110" y="-260" type="curve"/>
      <point x="510" y="-260" type="line"/>
      <point x="510" y="-180" type="line"/>
      <point x="510" y="-32"/>
      <point x="510" y="96"/>
      <point x="510" y="278" type="curve"/>
      <point x="510" y="1008" type="line"/>
      <point x="510" y="1198"/>
      <point x="510" y="1332"/>
      <point x="510" y="1486" type="curve"/>
      <point x="510" y="1566" type="line"/>
      <point x="110" y="1566" type="line"/>
      <point x="110" y="1412"/>
      <point x="110" y="1278"/>
      <point x="110" y="1088" type="curve"/>
      <point x="110" y="198" type="line"/>
      <point x="110" y="16"/>
      <point x="110" y="-112"/>
    </contour>
    <contour>
      <point x="458" y="-260" type="line"/>
      <point x="830" y="-260" type="line"/>
      <point x="830" y="86" type="line"/>
      <point x="746" y="86"/>
      <point x="660" y="86"/>
      <point x="560" y="86" type="curve"/>
      <point x="458" y="86" type="line"/>
    </contour>
    <contour>
      <point x="426" y="1220" type="line"/>
      <point x="538" y="1220" type="line"/>
      <point x="658" y="1220"/>
      <point x="742" y="1220"/>
      <point x="820" y="1220" type="curve"/>
      <point x="820" y="1566" type="line"/>
      <point x="426" y="1566" type="line"/>
    </contour>
  </outline>
</glyph>
<glyph name="underscore" format="2">
  <advance width="920"/>
  <unicode hex="005F"/>
  <outline>
    <contour>
      <point x="-20" y="-416" type="line"/>
      <point x="130" y="-416"/>
      <point x="282" y="-416"/>
      <point x="396" y="-416" type="curve"/>
      <point x="524" y="-416" type="line"/>
      <point x="638" y="-416"/>
      <point x="790" y="-416"/>
      <point x="940" y="-416" type="curve"/>
      <point x="940" y="-60" type="line"/>
      <point x="790" y="-60"/>
      <point x="638" y="-60"/>
      <point x="524" y="-60" type="curve"/>
      <point x="396" y="-60" type="line"/>
      <point x="282" y="-60"/>
      <point x="130" y="-60"/>
      <point x="-20" y="-60" type="curve"/>
    </contour>
  </outline>
</glyph>
<glyph name="a" format="2">
  <advance width="1050"/>
  <unicode hex="0061"/>
  <anchor x="534" y="0" name="bottom"/>
  <anchor x="990" y="0" name="ogonek"/>
  <anchor x="534" y="1004" name="top"/>
  <outline>
    <contour>
      <point x="298" y="-28" type="curve" smooth="yes"/>
      <point x="434" y="-28"/>
      <point x="524" y="50"/>
      <point x="574" y="146" type="curve"/>
      <point x="602" y="146" type="line"/>
      <point x="632" y="0" type="line"/>
      <point x="990" y="0" type="line"/>
      <point x="990" y="138"/>
      <point x="990" y="268"/>
      <point x="990" y="380" type="curve"/>
      <point x="990" y="424" type="line" smooth="yes"/>
      <point x="990" y="488"/>
      <point x="990" y="596"/>
      <point x="990" y="666" type="curve" smooth="yes"/>
      <point x="990" y="928"/>
      <point x="832" y="1036"/>
      <point x="566" y="1036" type="curve" smooth="yes"/>
      <point x="354" y="1036"/>
      <point x="184" y="990"/>
      <point x="82" y="958" type="curve"/>
      <point x="100" y="594" type="line"/>
      <point x="212" y="652"/>
      <point x="344" y="678"/>
      <point x="436" y="678" type="curve" smooth="yes"/>
      <point x="554" y="678"/>
      <point x="600" y="650"/>
      <point x="598" y="616" type="curve"/>
      <point x="342" y="568" type="line" smooth="yes"/>
      <point x="238" y="548"/>
      <point x="36" y="488"/>
      <point x="36" y="252" type="curve" smooth="yes"/>
      <point x="36" y="104"/>
      <point x="118" y="-28"/>
    </contour>
    <contour>
      <point x="506" y="306" type="curve" smooth="yes"/>
      <point x="478" y="306"/>
      <point x="446" y="326"/>
      <point x="446" y="372" type="curve" smooth="yes"/>
      <point x="446" y="420"/>
      <point x="480" y="440"/>
      <point x="510" y="452" type="curve" smooth="yes"/>
      <point x="554" y="470"/>
      <point x="570" y="482"/>
      <point x="586" y="500" type="curve"/>
      <point x="586" y="358" type="line"/>
      <point x="564" y="328"/>
      <point x="534" y="306"/>
    </contour>
  </outline>
</glyph>
<glyph name="m" format="2">
  <advance width="1746"/>
  <unicode hex="006D"/>
  <anchor x="878" y="0" name="bottom"/>
  <anchor x="878" y="1004" name="top"/>
  <outline>
    <contour>
      <point x="70" y="0" type="curve"/>
      <point x="514" y="0" type="line"/>
      <point x="514" y="138"/>
      <point x="514" y="258"/>
      <point x="514" y="400" type="curve"/>
      <point x="514" y="582" type="line"/>
      <point x="534" y="612"/>
      <point x="564" y="636"/>
      <point x="596" y="636" type="curve" smooth="yes"/>
      <point x="640" y="636"/>
      <point x="656" y="600"/>
      <point x="656" y="530" type="curve"/>
      <point x="656" y="400" type="line"/>
      <point x="656" y="258"/>
      <point x="656" y="138"/>
      <point x="656" y="0" type="curve"/>
      <point x="1100" y="0" type="line"/>
      <point x="1100" y="138"/>
      <point x="1100" y="258"/>
      <point x="1100" y="426" type="curve"/>
      <point x="1100" y="510"/>
      <point x="1100" y="594"/>
      <point x="1100" y="684" type="curve" smooth="yes"/>
      <point x="1100" y="736"/>
      <point x="1094" y="782"/>
      <point x="1084" y="824" type="curve"/>
      <point x="1052" y="824" type="line"/>
      <point x="1020" y="960"/>
      <point x="942" y="1036"/>
      <point x="798" y="1036" type="curve" smooth="yes"/>
      <point x="660" y="1036"/>
      <point x="564" y="968"/>
      <point x="492" y="862" type="curve"/>
      <point x="458" y="862" type="line"/>
      <point x="438" y="1024" type="line"/>
      <point x="70" y="1004" type="line"/>
      <point x="70" y="838"/>
      <point x="70" y="684"/>
      <point x="70" y="526" type="curve"/>
      <point x="70" y="426" type="line"/>
      <point x="70" y="258"/>
      <point x="70" y="138"/>
    </contour>
    <contour>
      <point x="1242" y="0" type="curve"/>
      <point x="1686" y="0" type="line"/>
      <point x="1686" y="138"/>
      <point x="1686" y="258"/>
      <point x="1686" y="426" type="curve"/>
      <point x="1686" y="510"/>
      <point x="1686" y="594"/>
      <point x="1686" y="684" type="curve" smooth="yes"/>
      <point x="1686" y="922"/>
      <point x="1572" y="1036"/>
      <point x="1386" y="1036" type="curve" smooth="yes"/>
      <point x="1242" y="1036"/>
      <point x="1140" y="968"/>
      <point x="1066" y="862" type="curve"/>
      <point x="1032" y="862" type="line"/>
      <point x="1098" y="582" type="line"/>
      <point x="1120" y="612"/>
      <point x="1150" y="636"/>
      <point x="1182" y="636" type="curve" smooth="yes"/>
      <point x="1226" y="636"/>
      <point x="1242" y="600"/>
      <point x="1242" y="530" type="curve"/>
      <point x="1242" y="400" type="line"/>
      <point x="1242" y="258"/>
      <point x="1242" y="138"/>
    </contour>
  </outline>
</glyph>
<glyph name="z" format="2">
  <advance width="1072"/>
  <unicode hex="007A"/>
  <anchor x="534" y="0" name="bottom"/>
  <anchor x="534" y="502" name="center"/>
  <anchor x="534" y="1004" name="top"/>
  <outline>
    <contour>
      <point x="48" y="0" type="line"/>
      <point x="1024" y="0" type="line"/>
      <point x="1024" y="320" type="line"/>
      <point x="926" y="320"/>
      <point x="794" y="320"/>
      <point x="714" y="320" type="curve"/>
      <point x="538" y="320" type="line"/>
      <point x="582" y="226" type="line"/>
      <point x="788" y="494" type="line"/>
      <point x="856" y="582"/>
      <point x="938" y="688"/>
      <point x="998" y="764" type="curve"/>
      <point x="998" y="1004" type="line"/>
      <point x="62" y="1004" type="line"/>
      <point x="62" y="682" type="line"/>
      <point x="170" y="682"/>
      <point x="308" y="682"/>
      <point x="388" y="682" type="curve"/>
      <point x="552" y="682" type="line"/>
      <point x="498" y="792" type="line"/>
      <point x="268" y="490" type="line"/>
      <point x="206" y="406"/>
      <point x="128" y="304"/>
      <point x="48" y="200" type="curve"/>
    </contour>
  </outline>
</glyph>
<glyph name="cent" format="2">
  <advance width="948"/>
  <unicode hex="00A2"/>
  <anchor x="548" y="0" name="bottom"/>
  <anchor x="548" y="1004" name="top"/>
  <outline>
    <contour>
      <point x="432" y="-274" type="curve"/>
      <point x="732" y="-274" type="line"/>
      <point x="732" y="2"/>
      <point x="732" y="308"/>
      <point x="732" y="384" type="curve"/>
      <point x="732" y="598" type="line"/>
      <point x="732" y="674"/>
      <point x="732" y="980"/>
      <point x="732" y="1256" type="curve"/>
      <point x="432" y="1256" type="line"/>
      <point x="432" y="980"/>
      <point x="432" y="674"/>
      <point x="432" y="598" type="curve"/>
      <point x="432" y="384" type="line"/>
      <point x="432" y="308"/>
      <point x="432" y="2"/>
    </contour>
    <contour>
      <point x="594" y="-24" type="curve" smooth="yes"/>
      <point x="736" y="-24"/>
      <point x="828" y="-10"/>
      <point x="902" y="14" type="curve"/>
      <point x="886" y="388" type="line"/>
      <point x="830" y="350"/>
      <point x="768" y="332"/>
      <point x="704" y="332" type="curve"/>
      <point x="570" y="332"/>
      <point x="488" y="400"/>
      <point x="488" y="512" type="curve" smooth="yes"/>
      <point x="488" y="606"/>
      <point x="548" y="666"/>
      <point x="640" y="666" type="curve"/>
      <point x="686" y="666"/>
      <point x="762" y="658"/>
      <point x="878" y="592" type="curve"/>
      <point x="908" y="966" type="line"/>
      <point x="824" y="1010"/>
      <point x="696" y="1034"/>
      <point x="574" y="1034" type="curve" smooth="yes"/>
      <point x="206" y="1034"/>
      <point x="36" y="808"/>
      <point x="36" y="498" type="curve" smooth="yes"/>
      <point x="36" y="190"/>
      <point x="236" y="-24"/>
    </contour>
  </outline>
</glyph>
<glyph name="currency" format="2">
  <advance width="1368"/>
  <unicode hex="00A4"/>
  <outline>
    <contour>
      <point x="682" y="154" type="curve" smooth="yes"/>
      <point x="992" y="154"/>
      <point x="1206" y="318"/>
      <point x="1206" y="644" type="curve" smooth="yes"/>
      <point x="1206" y="926"/>
      <point x="992" y="1126"/>
      <point x="686" y="1126" type="curve" smooth="yes"/>
      <point x="376" y="1126"/>
      <point x="162" y="936"/>
      <point x="162" y="644" type="curve" smooth="yes"/>
      <point x="162" y="320"/>
      <point x="376" y="154"/>
    </contour>
    <contour>
      <point x="306" y="-14" type="line"/>
      <point x="412" y="92"/>
      <point x="520" y="198"/>
      <point x="600" y="280" type="curve"/>
      <point x="324" y="556" type="line"/>
      <point x="242" y="476"/>
      <point x="136" y="368"/>
      <point x="30" y="262" type="curve"/>
    </contour>
    <contour>
      <point x="684" y="506" type="curve"/>
      <point x="604" y="506"/>
      <point x="550" y="554"/>
      <point x="550" y="642" type="curve" smooth="yes"/>
      <point x="550" y="718"/>
      <point x="604" y="776"/>
      <point x="684" y="776" type="curve"/>
      <point x="766" y="776"/>
      <point x="818" y="714"/>
      <point x="818" y="642" type="curve" smooth="yes"/>
      <point x="818" y="554"/>
      <point x="764" y="506"/>
    </contour>
    <contour>
      <point x="328" y="728" type="curve"/>
      <point x="596" y="996" type="line"/>
      <point x="516" y="1076"/>
      <point x="408" y="1184"/>
      <point x="302" y="1290" type="curve"/>
      <point x="34" y="1022" type="line"/>
      <point x="140" y="916"/>
      <point x="248" y="808"/>
    </contour>
    <contour>
      <point x="1066" y="-10" type="curve"/>
      <point x="1334" y="258" type="line"/>
      <point x="1228" y="364"/>
      <point x="1120" y="472"/>
      <point x="1040" y="552" type="curve"/>
      <point x="772" y="284" type="line"/>
      <point x="852" y="204"/>
      <point x="960" y="96"/>
    </contour>
    <contour>
      <point x="1044" y="724" type="line"/>
      <point x="1126" y="804"/>
      <point x="1232" y="912"/>
      <point x="1338" y="1018" type="curve"/>
      <point x="1062" y="1294" type="line"/>
      <point x="956" y="1188"/>
      <point x="848" y="1082"/>
      <point x="768" y="1000" type="curve"/>
    </contour>
  </outline>
</glyph>
<glyph name="brokenbar" format="2">
  <advance width="604"/>
  <unicode hex="00A6"/>
  <outline>
    <contour>
      <point x="112" y="712" type="line"/>
      <point x="492" y="712" type="line"/>
      <point x="492" y="894" type="line"/>
      <point x="492" y="970"/>
      <point x="492" y="1276"/>
      <point x="492" y="1552" type="curve"/>
      <point x="112" y="1552" type="line"/>
      <point x="112" y="1276"/>
      <point x="112" y="970"/>
      <point x="112" y="894" type="curve"/>
    </contour>
    <contour>
      <point x="112" y="-328" type="curve"/>
      <point x="492" y="-328" type="line"/>
      <point x="492" y="-52"/>
      <point x="492" y="254"/>
      <point x="492" y="330" type="curve"/>
      <point x="492" y="512" type="line"/>
      <point x="112" y="512" type="line"/>
      <point x="112" y="330" type="line"/>
      <point x="112" y="254"/>
      <point x="112" y="-52"/>
    </contour>
  </outline>
</glyph>
<glyph name="registered" format="2">
  <advance width="1176"/>
  <unicode hex="00AE"/>
  <outline>
    <contour>
      <point x="594" y="450" type="curve" smooth="yes"/>
      <point x="948" y="450"/>
      <point x="1126" y="674"/>
      <point x="1126" y="976" type="curve" smooth="yes"/>
      <point x="1126" y="1262"/>
      <point x="962" y="1498"/>
      <point x="582" y="1498" type="curve" smooth="yes"/>
      <point x="210" y="1498"/>
      <point x="50" y="1264"/>
      <point x="50" y="974" type="curve" smooth="yes"/>
      <point x="50" y="704"/>
      <point x="202" y="450"/>
    </contour>
    <contour>
      <point x="356" y="708" type="curve"/>
      <point x="532" y="708" type="line"/>
      <point x="532" y="774"/>
      <point x="532" y="826"/>
      <point x="532" y="896" type="curve"/>
      <point x="532" y="1080" type="line"/>
      <point x="532" y="1152"/>
      <point x="532" y="1204"/>
      <point x="532" y="1250" type="curve"/>
      <point x="356" y="1278" type="line"/>
      <point x="356" y="1208"/>
      <point x="356" y="1158"/>
      <point x="356" y="1088" type="curve"/>
      <point x="356" y="896" type="line"/>
      <point x="356" y="822"/>
      <point x="356" y="780"/>
    </contour>
    <contour>
      <point x="592" y="568" type="curve"/>
      <point x="272" y="568"/>
      <point x="182" y="778"/>
      <point x="182" y="974" type="curve" smooth="yes"/>
      <point x="182" y="1194"/>
      <point x="282" y="1382"/>
      <point x="584" y="1382" type="curve"/>
      <point x="890" y="1382"/>
      <point x="994" y="1188"/>
      <point x="994" y="976" type="curve" smooth="yes"/>
      <point x="994" y="750"/>
      <point x="874" y="568"/>
    </contour>
    <contour>
      <point x="672" y="708" type="curve"/>
      <point x="872" y="708" type="line"/>
      <point x="846" y="752"/>
      <point x="808" y="818"/>
      <point x="774" y="876" type="curve"/>
      <point x="706" y="992" type="line"/>
      <point x="634" y="936" type="line"/>
      <point x="780" y="936"/>
      <point x="828" y="1014"/>
      <point x="828" y="1112" type="curve" smooth="yes"/>
      <point x="828" y="1230"/>
      <point x="750" y="1284"/>
      <point x="592" y="1284" type="curve"/>
      <point x="490" y="1284"/>
      <point x="410" y="1278"/>
      <point x="356" y="1278" type="curve"/>
      <point x="476" y="1144" type="line"/>
      <point x="584" y="1144" type="line" smooth="yes"/>
      <point x="606" y="1144"/>
      <point x="644" y="1142"/>
      <point x="644" y="1088" type="curve" smooth="yes"/>
      <point x="644" y="1038"/>
      <point x="614" y="1022"/>
      <point x="572" y="1022" type="curve" smooth="yes"/>
      <point x="496" y="1022" type="line"/>
      <point x="496" y="916" type="line"/>
      <point x="634" y="916" type="line"/>
      <point x="528" y="980" type="line"/>
      <point x="598" y="848" type="line"/>
      <point x="620" y="806"/>
      <point x="646" y="758"/>
    </contour>
  </outline>
</glyph>
<glyph name="plusminus" format="2">
  <advance width="1180"/>
  <unicode hex="00B1"/>
  <outline>
    <contour>
      <point x="80" y="0" type="line"/>
      <point x="230" y="0"/>
      <point x="382" y="0"/>
      <point x="496" y="0" type="curve"/>
      <point x="684" y="0" type="line"/>
      <point x="798" y="0"/>
      <point x="950" y="0"/>
      <point x="1100" y="0" type="curve"/>
      <point x="1100" y="380" type="line"/>
      <point x="950" y="380"/>
      <point x="798" y="380"/>
      <point x="684" y="380" type="curve"/>
      <point x="496" y="380" type="line"/>
      <point x="382" y="380"/>
      <point x="230" y="380"/>
      <point x="80" y="380" type="curve"/>
    </contour>
    <contour>
      <point x="80" y="748" type="line"/>
      <point x="230" y="748"/>
      <point x="382" y="748"/>
      <point x="496" y="748" type="curve"/>
      <point x="684" y="748" type="line"/>
      <point x="798" y="748"/>
      <point x="950" y="748"/>
      <point x="1100" y="748" type="curve"/>
      <point x="1100" y="1128" type="line"/>
      <point x="950" y="1128"/>
      <point x="798" y="1128"/>
      <point x="684" y="1128" type="curve"/>
      <point x="496" y="1128" type="line"/>
      <point x="382" y="1128"/>
      <point x="230" y="1128"/>
      <point x="80" y="1128" type="curve"/>
    </contour>
    <contour>
      <point x="394" y="448" type="curve"/>
      <point x="786" y="448" type="line"/>
      <point x="786" y="598"/>
      <point x="786" y="750"/>
      <point x="786" y="864" type="curve"/>
      <point x="786" y="1012" type="line"/>
      <point x="786" y="1126"/>
      <point x="786" y="1278"/>
      <point x="786" y="1428" type="curve"/>
      <point x="394" y="1428" type="line"/>
      <point x="394" y="1278"/>
      <point x="394" y="1126"/>
      <point x="394" y="1012" type="curve"/>
      <point x="394" y="864" type="line"/>
      <point x="394" y="750"/>
      <point x="394" y="598"/>
    </contour>
  </outline>
</glyph>
<glyph name="micro" format="2">
  <advance width="1178"/>
  <unicode hex="00B5"/>
  <outline>
    <contour>
      <point x="70" y="-396" type="curve"/>
      <point x="514" y="-384" type="line"/>
      <point x="514" y="-246"/>
      <point x="514" y="-126"/>
      <point x="514" y="16" type="curve"/>
      <point x="514" y="38" type="line"/>
      <point x="308" y="38" type="line"/>
      <point x="346" y="-12"/>
      <point x="398" y="-32"/>
      <point x="458" y="-32" type="curve" smooth="yes"/>
      <point x="562" y="-32"/>
      <point x="634" y="36"/>
      <point x="686" y="142" type="curve"/>
      <point x="720" y="142" type="line"/>
      <point x="740" y="0" type="line"/>
      <point x="1108" y="0" type="line"/>
      <point x="1108" y="138"/>
      <point x="1108" y="268"/>
      <point x="1108" y="380" type="curve"/>
      <point x="1108" y="546" type="line"/>
      <point x="1108" y="746"/>
      <point x="1108" y="844"/>
      <point x="1108" y="1004" type="curve"/>
      <point x="664" y="1004" type="line"/>
      <point x="664" y="866"/>
      <point x="664" y="742"/>
      <point x="664" y="606" type="curve"/>
      <point x="664" y="412" type="line"/>
      <point x="642" y="382"/>
      <point x="612" y="358"/>
      <point x="578" y="358" type="curve" smooth="yes"/>
      <point x="530" y="358"/>
      <point x="514" y="394"/>
      <point x="514" y="464" type="curve"/>
      <point x="514" y="606" type="line"/>
      <point x="514" y="728"/>
      <point x="514" y="908"/>
      <point x="514" y="1016" type="curve"/>
      <point x="70" y="1004" type="line"/>
      <point x="70" y="866"/>
      <point x="70" y="746"/>
      <point x="70" y="546" type="curve"/>
      <point x="70" y="42" type="line"/>
      <point x="70" y="-126"/>
      <point x="70" y="-258"/>
    </contour>
  </outline>
</glyph>
<glyph name="paragraph" format="2">
  <advance width="1228"/>
  <unicode hex="00B6"/>
  <outline>
    <contour>
      <point x="426" y="528" type="curve" smooth="yes"/>
      <point x="468" y="528" type="line"/>
      <point x="468" y="1426" type="line"/>
      <point x="426" y="1426" type="line"/>
      <point x="172" y="1426"/>
      <point x="30" y="1240"/>
      <point x="30" y="984" type="curve" smooth="yes"/>
      <point x="30" y="742"/>
      <point x="156" y="528"/>
    </contour>
    <contour>
      <point x="442" y="-354" type="curve"/>
      <point x="702" y="-354" type="line"/>
      <point x="702" y="-78"/>
      <point x="702" y="228"/>
      <point x="702" y="304" type="curve"/>
      <point x="702" y="768" type="line"/>
      <point x="702" y="844"/>
      <point x="702" y="1150"/>
      <point x="702" y="1426" type="curve"/>
      <point x="442" y="1426" type="line"/>
      <point x="442" y="1150"/>
      <point x="442" y="844"/>
      <point x="442" y="768" type="curve"/>
      <point x="442" y="304" type="line"/>
      <point x="442" y="228"/>
      <point x="442" y="-78"/>
    </contour>
    <contour>
      <point x="822" y="-354" type="curve"/>
      <point x="1082" y="-354" type="line"/>
      <point x="1082" y="-78"/>
      <point x="1082" y="228"/>
      <point x="1082" y="304" type="curve"/>
      <point x="1082" y="768" type="line"/>
      <point x="1082" y="844"/>
      <point x="1082" y="1150"/>
      <point x="1082" y="1426" type="curve"/>
      <point x="822" y="1426" type="line"/>
      <point x="822" y="1150"/>
      <point x="822" y="844"/>
      <point x="822" y="768" type="curve"/>
      <point x="822" y="304" type="line"/>
      <point x="822" y="228"/>
      <point x="822" y="-78"/>
    </contour>
    <contour>
      <point x="584" y="1186" type="line"/>
      <point x="772" y="1186" type="line"/>
      <point x="886" y="1186"/>
      <point x="1038" y="1186"/>
      <point x="1188" y="1186" type="curve"/>
      <point x="1188" y="1426" type="line"/>
      <point x="1038" y="1426"/>
      <point x="886" y="1426"/>
      <point x="772" y="1426" type="curve"/>
      <point x="584" y="1426" type="line"/>
    </contour>
  </outline>
</glyph>
<glyph name="multiply" format="2">
  <advance width="1196"/>
  <unicode hex="00D7"/>
  <outline>
    <contour>
      <point x="866" y="80" type="curve"/>
      <point x="1136" y="350" type="line"/>
      <point x="1030" y="456"/>
      <point x="922" y="562"/>
      <point x="842" y="644" type="curve"/>
      <point x="624" y="862" type="line"/>
      <point x="542" y="942"/>
      <point x="436" y="1050"/>
      <point x="330" y="1156" type="curve"/>
      <point x="60" y="886" type="line"/>
      <point x="166" y="780"/>
      <point x="274" y="674"/>
      <point x="354" y="592" type="curve"/>
      <point x="572" y="374" type="line"/>
      <point x="654" y="294"/>
      <point x="760" y="186"/>
    </contour>
    <contour>
      <point x="330" y="80" type="line"/>
      <point x="436" y="186"/>
      <point x="542" y="294"/>
      <point x="624" y="374" type="curve"/>
      <point x="842" y="592" type="line"/>
      <point x="922" y="674"/>
      <point x="1030" y="780"/>
      <point x="1136" y="886" type="curve"/>
      <point x="866" y="1156" type="line"/>
      <point x="760" y="1050"/>
      <point x="654" y="942"/>
      <point x="572" y="862" type="curve"/>
      <point x="354" y="644" type="line"/>
      <point x="274" y="562"/>
      <point x="166" y="456"/>
      <point x="60" y="350" type="curve"/>
    </contour>
  </outline>
</glyph>
<glyph name="Thorn" format="2">
  <advance width="1346"/>
  <unicode hex="00DE"/>
  <outline>
    <contour>
      <point x="92" y="0" type="curve"/>
      <point x="574" y="0" type="line"/>
      <point x="574" y="148"/>
      <point x="574" y="276"/>
      <point x="574" y="458" type="curve"/>
      <point x="574" y="948" type="line"/>
      <point x="574" y="1138"/>
      <point x="574" y="1272"/>
      <point x="574" y="1426" type="curve"/>
      <point x="92" y="1426" type="line"/>
      <point x="92" y="1272"/>
      <point x="92" y="1138"/>
      <point x="92" y="948" type="curve"/>
      <point x="92" y="458" type="line"/>
      <point x="92" y="276"/>
      <point x="92" y="148"/>
    </contour>
    <contour>
      <point x="810" y="244" type="curve"/>
      <point x="1154" y="244"/>
      <point x="1306" y="444"/>
      <point x="1306" y="750" type="curve" smooth="yes"/>
      <point x="1306" y="1138"/>
      <point x="1106" y="1244"/>
      <point x="736" y="1244" type="curve"/>
      <point x="654" y="1244"/>
      <point x="590" y="1244"/>
      <point x="516" y="1244" type="curve"/>
      <point x="516" y="874" type="line"/>
      <point x="702" y="874" type="line" smooth="yes"/>
      <point x="768" y="874"/>
      <point x="808" y="826"/>
      <point x="808" y="732" type="curve" smooth="yes"/>
      <point x="808" y="636"/>
      <point x="774" y="588"/>
      <point x="690" y="588" type="curve" smooth="yes"/>
      <point x="516" y="588" type="line"/>
      <point x="516" y="244" type="line"/>
      <point x="590" y="244"/>
      <point x="716" y="244"/>
    </contour>
  </outline>
</glyph>
<glyph name="ae" format="2">
  <advance width="1594"/>
  <unicode hex="00E6"/>
  <anchor x="800" y="0" name="bottom"/>
  <anchor x="800" y="1004" name="top"/>
  <outline>
    <contour>
      <point x="1168" y="-32" type="curve" smooth="yes"/>
      <point x="1338" y="-32"/>
      <point x="1460" y="-2"/>
      <point x="1540" y="28" type="curve"/>
      <point x="1526" y="392" type="line"/>
      <point x="1430" y="348"/>
      <point x="1290" y="326"/>
      <point x="1226" y="326" type="curve" smooth="yes"/>
      <point x="1060" y="326"/>
      <point x="994" y="382"/>
      <point x="994" y="496" type="curve"/>
      <point x="994" y="574" type="line"/>
      <point x="994" y="704"/>
      <point x="1042" y="754"/>
      <point x="1092" y="754" type="curve"/>
      <point x="1140" y="754"/>
      <point x="1174" y="696"/>
      <point x="1174" y="606" type="curve" smooth="yes"/>
      <point x="1174" y="592"/>
      <point x="1172" y="574"/>
      <point x="1170" y="558" type="curve"/>
      <point x="1544" y="436" type="line"/>
      <point x="1550" y="478"/>
      <point x="1554" y="518"/>
      <point x="1554" y="576" type="curve" smooth="yes"/>
      <point x="1554" y="898"/>
      <point x="1384" y="1036"/>
      <point x="1088" y="1036" type="curve" smooth="yes"/>
      <point x="716" y="1036"/>
      <point x="618" y="816"/>
      <point x="618" y="502" type="curve" smooth="yes"/>
      <point x="618" y="188"/>
      <point x="788" y="-32"/>
    </contour>
    <contour>
      <point x="506" y="306" type="curve" smooth="yes"/>
      <point x="478" y="306"/>
      <point x="446" y="326"/>
      <point x="446" y="372" type="curve" smooth="yes"/>
      <point x="446" y="420"/>
      <point x="480" y="440"/>
      <point x="510" y="452" type="curve" smooth="yes"/>
      <point x="554" y="470"/>
      <point x="570" y="482"/>
      <point x="586" y="500" type="curve"/>
      <point x="586" y="358" type="line"/>
      <point x="564" y="328"/>
      <point x="534" y="306"/>
    </contour>
    <contour>
      <point x="364" y="-28" type="curve" smooth="yes"/>
      <point x="568" y="-28"/>
      <point x="710" y="40"/>
      <point x="840" y="250" type="curve"/>
      <point x="860" y="512" type="line"/>
      <point x="918" y="666" type="line"/>
      <point x="918" y="928"/>
      <point x="794" y="1036"/>
      <point x="528" y="1036" type="curve" smooth="yes"/>
      <point x="332" y="1036"/>
      <point x="176" y="990"/>
      <point x="82" y="958" type="curve"/>
      <point x="100" y="594" type="line"/>
      <point x="212" y="652"/>
      <point x="344" y="678"/>
      <point x="436" y="678" type="curve" smooth="yes"/>
      <point x="554" y="678"/>
      <point x="600" y="650"/>
      <point x="598" y="616" type="curve"/>
      <point x="342" y="568" type="line" smooth="yes"/>
      <point x="238" y="548"/>
      <point x="36" y="488"/>
      <point x="36" y="252" type="curve" smooth="yes"/>
      <point x="36" y="104"/>
      <point x="118" y="-28"/>
    </contour>
    <contour>
      <point x="764" y="436" type="line"/>
      <point x="1544" y="436" type="line"/>
      <point x="1544" y="596" type="line"/>
      <point x="1290" y="620" type="line"/>
      <point x="764" y="600" type="line"/>
    </contour>
  </outline>
</glyph>
<glyph name="divide" format="2">
  <advance width="1180"/>
  <unicode hex="00F7"/>
  <outline>
    <contour>
      <point x="80" y="428" type="line"/>
      <point x="230" y="428"/>
      <point x="382" y="428"/>
      <point x="496" y="428" type="curve"/>
      <point x="684" y="428" type="line"/>
      <point x="798" y="428"/>
      <point x="950" y="428"/>
      <point x="1100" y="428" type="curve"/>
      <point x="1100" y="808" type="line"/>
      <point x="950" y="808"/>
      <point x="798" y="808"/>
      <point x="684" y="808" type="curve"/>
      <point x="496" y="808" type="line"/>
      <point x="382" y="808"/>
      <point x="230" y="808"/>
      <point x="80" y="808" type="curve"/>
    </contour>
    <contour>
      <point x="587" y="-12" type="curve" smooth="yes"/>
      <point x="716" y="-12"/>
      <point x="794" y="77"/>
      <point x="794" y="188" type="curve" smooth="yes"/>
      <point x="794" y="299"/>
      <point x="716" y="383"/>
      <point x="589" y="383" type="curve" smooth="yes"/>
      <point x="459" y="383"/>
      <point x="382" y="299"/>
      <point x="382" y="188" type="curve" smooth="yes"/>
      <point x="382" y="77"/>
      <point x="459" y="-12"/>
    </contour>
    <contour>
      <point x="587" y="854" type="curve" smooth="yes"/>
      <point x="716" y="854"/>
      <point x="794" y="943"/>
      <point x="794" y="1054" type="curve" smooth="yes"/>
      <point x="794" y="1165"/>
      <point x="716" y="1249"/>
      <point x="589" y="1249" type="curve" smooth="yes"/>
      <point x="459" y="1249"/>
      <point x="382" y="1165"/>
      <point x="382" y="1054" type="curve" smooth="yes"/>
      <point x="382" y="943"/>
      <point x="459" y="854"/>
    </contour>
  </outline>
</glyph>
<glyph name="oslash" format="2">
  <advance width="1196"/>
  <unicode hex="00F8"/>
  <anchor x="598" y="1004" name="top"/>
  <outline>
    <contour>
      <point x="604" y="-32" type="curve" smooth="yes"/>
      <point x="970" y="-32"/>
      <point x="1160" y="194"/>
      <point x="1160" y="502" type="curve" smooth="yes"/>
      <point x="1160" y="800"/>
      <point x="986" y="1036"/>
      <point x="594" y="1036" type="curve" smooth="yes"/>
      <point x="212" y="1036"/>
      <point x="36" y="802"/>
      <point x="36" y="502" type="curve" smooth="yes"/>
      <point x="36" y="222"/>
      <point x="200" y="-32"/>
    </contour>
    <contour>
      <point x="604" y="282" type="curve"/>
      <point x="506" y="282"/>
      <point x="448" y="384"/>
      <point x="448" y="502" type="curve" smooth="yes"/>
      <point x="448" y="630"/>
      <point x="502" y="722"/>
      <point x="600" y="722" type="curve"/>
      <point x="682" y="722"/>
      <point x="748" y="650"/>
      <point x="748" y="502" type="curve" smooth="yes"/>
      <point x="748" y="384"/>
      <point x="700" y="282"/>
    </contour>
    <contour>
      <point x="220" y="-162" type="line"/>
      <point x="318" y="-34"/>
      <point x="410" y="86"/>
      <point x="518" y="226" type="curve"/>
      <point x="816" y="618" type="line"/>
      <point x="924" y="760"/>
      <point x="1012" y="876"/>
      <point x="1114" y="1010" type="curve"/>
      <point x="952" y="1132" type="line"/>
      <point x="852" y="1000"/>
      <point x="762" y="884"/>
      <point x="652" y="740" type="curve"/>
      <point x="360" y="358" type="line"/>
      <point x="254" y="218"/>
      <point x="168" y="108"/>
      <point x="64" y="-30" type="curve"/>
    </contour>
  </outline>
</glyph>
<glyph name="kgreenlandic" format="2">
  <advance width="1218"/>
  <unicode hex="0138"/>
  <outline>
    <contour>
      <point x="688" y="0" type="curve"/>
      <point x="1218" y="0" type="line"/>
      <point x="1146" y="126"/>
      <point x="1072" y="254"/>
      <point x="1000" y="380" type="curve"/>
      <point x="848" y="642" type="line"/>
      <point x="870" y="452" type="line"/>
      <point x="980" y="634" type="line"/>
      <point x="1056" y="758"/>
      <point x="1130" y="880"/>
      <point x="1206" y="1004" type="curve"/>
      <point x="702" y="1004" type="line"/>
      <point x="672" y="924"/>
      <point x="642" y="846"/>
      <point x="612" y="766" type="curve"/>
      <point x="562" y="636" type="line"/>
      <point x="482" y="636" type="line"/>
      <point x="482" y="352" type="line"/>
      <point x="562" y="352" type="line"/>
      <point x="610" y="216" type="line"/>
      <point x="636" y="144"/>
      <point x="662" y="72"/>
    </contour>
    <contour>
      <point x="70" y="0" type="curve"/>
      <point x="514" y="0" type="line"/>
      <point x="514" y="114"/>
      <point x="514" y="214"/>
      <point x="514" y="332" type="curve"/>
      <point x="514" y="606" type="line"/>
      <point x="514" y="746"/>
      <point x="514" y="878"/>
      <point x="514" y="1016" type="curve"/>
      <point x="70" y="1004" type="line"/>
      <point x="70" y="866"/>
      <point x="70" y="766"/>
      <point x="70" y="546" type="curve"/>
      <point x="70" y="426" type="line"/>
      <point x="70" y="258"/>
      <point x="70" y="138"/>
    </contour>
  </outline>
</glyph>
<glyph name="lslash" format="2">
  <advance width="832"/>
  <unicode hex="0142"/>
  <outline>
    <contour>
      <point x="54" y="450" type="line"/>
      <point x="180" y="488"/>
      <point x="302" y="524"/>
      <point x="408" y="554" type="curve"/>
      <point x="504" y="584" type="line"/>
      <point x="612" y="616"/>
      <point x="732" y="650"/>
      <point x="860" y="688" type="curve"/>
      <point x="774" y="976" type="line"/>
      <point x="648" y="938"/>
      <point x="526" y="902"/>
      <point x="420" y="872" type="curve"/>
      <point x="324" y="842" type="line"/>
      <point x="216" y="810"/>
      <point x="96" y="776"/>
      <point x="-32" y="738" type="curve"/>
    </contour>
    <contour>
      <point x="194" y="0" type="curve"/>
      <point x="638" y="0" type="line"/>
      <point x="638" y="138"/>
      <point x="638" y="258"/>
      <point x="638" y="426" type="curve"/>
      <point x="638" y="986" type="line"/>
      <point x="638" y="1178"/>
      <point x="638" y="1346"/>
      <point x="638" y="1500" type="curve"/>
      <point x="194" y="1468" type="line"/>
      <point x="194" y="1302"/>
      <point x="194" y="1144"/>
      <point x="194" y="986" type="curve"/>
      <point x="194" y="426" type="line"/>
      <point x="194" y="258"/>
      <point x="194" y="138"/>
    </contour>
  </outline>
</glyph>
<glyph name="Schwa" format="2">
  <advance width="1546"/>
  <unicode hex="018F"/>
  <outline>
    <contour>
      <point x="762" y="-32" type="curve" smooth="yes"/>
      <point x="1252" y="-32"/>
      <point x="1498" y="264"/>
      <point x="1498" y="712" type="curve" smooth="yes"/>
      <point x="1498" y="1180"/>
      <point x="1238" y="1458"/>
      <point x="744" y="1458" type="curve" smooth="yes"/>
      <point x="488" y="1458"/>
      <point x="302" y="1394"/>
      <point x="188" y="1344" type="curve"/>
      <point x="228" y="926" type="line"/>
      <point x="362" y="1002"/>
      <point x="530" y="1062"/>
      <point x="696" y="1062" type="curve"/>
      <point x="892" y="1062"/>
      <point x="998" y="984"/>
      <point x="1006" y="844" type="curve"/>
      <point x="1006" y="672" type="line"/>
      <point x="1002" y="480"/>
      <point x="920" y="364"/>
      <point x="762" y="364" type="curve"/>
      <point x="586" y="364"/>
      <point x="522" y="500"/>
      <point x="524" y="614" type="curve"/>
      <point x="462" y="544" type="line"/>
      <point x="1088" y="544" type="line"/>
      <point x="1088" y="868" type="line"/>
      <point x="62" y="868" type="line"/>
      <point x="48" y="692" type="line"/>
      <point x="48" y="314"/>
      <point x="242" y="-32"/>
    </contour>
  </outline>
</glyph>
<glyph name="jdotless" format="2">
  <advance width="604"/>
  <unicode hex="0237"/>
  <anchor x="324" y="-384" name="bottom"/>
  <anchor x="308" y="1004" name="top"/>
  <outline>
    <contour>
      <point x="-48" y="-396" type="curve"/>
      <point x="364" y="-384" type="line"/>
      <point x="478" y="-296"/>
      <point x="524" y="-144"/>
      <point x="524" y="48" type="curve" smooth="yes"/>
      <point x="524" y="160"/>
      <point x="524" y="382"/>
      <point x="524" y="526" type="curve"/>
      <point x="524" y="746"/>
      <point x="524" y="866"/>
      <point x="524" y="1004" type="curve"/>
      <point x="80" y="1004" type="line"/>
      <point x="80" y="866"/>
      <point x="80" y="746"/>
      <point x="80" y="526" type="curve"/>
      <point x="80" y="426" type="line"/>
      <point x="80" y="90" type="line"/>
      <point x="80" y="-82"/>
      <point x="46" y="-266"/>
    </contour>
  </outline>
</glyph>
<glyph name="ringhalfleft" format="2">
  <advance width="402"/>
  <unicode hex="02BF"/>
  <outline>
    <contour>
      <point x="360" y="1076" type="curve"/>
      <point x="360" y="1246" type="line"/>
      <point x="296" y="1246"/>
      <point x="258" y="1284"/>
      <point x="258" y="1346" type="curve" smooth="yes"/>
      <point x="258" y="1398"/>
      <point x="296" y="1444"/>
      <point x="362" y="1444" type="curve"/>
      <point x="362" y="1612" type="line"/>
      <point x="172" y="1612"/>
      <point x="50" y="1510"/>
      <point x="50" y="1348" type="curve" smooth="yes"/>
      <point x="50" y="1164"/>
      <point x="172" y="1076"/>
    </contour>
  </outline>
</glyph>
<glyph name="verticallinemod" format="2">
  <advance width="460"/>
  <unicode hex="02C8"/>
  <outline>
    <contour>
      <point x="400" y="1004" type="curve"/>
      <point x="62" y="1004" type="line"/>
      <point x="62" y="1182"/>
      <point x="62" y="1372"/>
      <point x="62" y="1558" type="curve"/>
      <point x="400" y="1558" type="line"/>
      <point x="400" y="1368"/>
      <point x="400" y="1182"/>
    </contour>
  </outline>
</glyph>
<glyph name="ringcomb" format="2">
  <unicode hex="030A"/>
  <anchor x="600" y="1004" name="_top"/>
  <anchor x="640" y="1382" name="top"/>
  <outline>
    <contour>
      <point x="598" y="1076" type="curve" smooth="yes"/>
      <point x="788" y="1076"/>
      <point x="910" y="1162"/>
      <point x="910" y="1348" type="curve" smooth="yes"/>
      <point x="910" y="1502"/>
      <point x="788" y="1612"/>
      <point x="600" y="1612" type="curve" smooth="yes"/>
      <point x="410" y="1612"/>
      <point x="288" y="1510"/>
      <point x="288" y="1348" type="curve" smooth="yes"/>
      <point x="288" y="1164"/>
      <point x="410" y="1076"/>
    </contour>
    <contour>
      <point x="598" y="1246" type="curve"/>
      <point x="534" y="1246"/>
      <point x="496" y="1284"/>
      <point x="496" y="1346" type="curve" smooth="yes"/>
      <point x="496" y="1398"/>
      <point x="534" y="1444"/>
      <point x="600" y="1444" type="curve"/>
      <point x="664" y="1444"/>
      <point x="702" y="1394"/>
      <point x="702" y="1346" type="curve" smooth="yes"/>
      <point x="702" y="1284"/>
      <point x="664" y="1246"/>
    </contour>
  </outline>
</glyph>
<glyph name="hungarumlautcomb" format="2">
  <unicode hex="030B"/>
  <anchor x="600" y="1004" name="_top"/>
  <anchor x="600" y="1534" name="top"/>
  <outline>
    <contour>
      <point x="640" y="1106" type="curve"/>
      <point x="938" y="1110" type="line"/>
      <point x="1042" y="1248"/>
      <point x="1154" y="1398"/>
      <point x="1270" y="1552" type="curve"/>
      <point x="850" y="1542" type="line"/>
      <point x="780" y="1396"/>
      <point x="710" y="1252"/>
    </contour>
    <contour>
      <point x="180" y="1106" type="curve"/>
      <point x="462" y="1110" type="line"/>
      <point x="548" y="1248"/>
      <point x="642" y="1398"/>
      <point x="738" y="1552" type="curve"/>
      <point x="338" y="1542" type="line"/>
      <point x="284" y="1396"/>
      <point x="232" y="1252"/>
    </contour>
  </outline>
</glyph>
<glyph name="dotbelowcomb" format="2">
  <unicode hex="0323"/>
  <anchor x="600" y="0" name="_bottom"/>
  <anchor x="600" y="0" name="bottom"/>
  <outline>
    <contour>
      <point x="600" y="-502" type="curve" smooth="yes"/>
      <point x="756" y="-502"/>
      <point x="850" y="-440"/>
      <point x="850" y="-284" type="curve" smooth="yes"/>
      <point x="850" y="-156"/>
      <point x="756" y="-72"/>
      <point x="602" y="-72" type="curve" smooth="yes"/>
      <point x="446" y="-72"/>
      <point x="352" y="-150"/>
      <point x="352" y="-284" type="curve" smooth="yes"/>
      <point x="352" y="-440"/>
      <point x="446" y="-502"/>
    </contour>
  </outline>
</glyph>
<glyph name="ogonekcomb" format="2">
  <unicode hex="0328"/>
  <anchor x="600" y="0" name="_ogonek"/>
  <outline>
    <contour>
      <point x="454" y="-456" type="curve" smooth="yes"/>
      <point x="518" y="-456"/>
      <point x="576" y="-448"/>
      <point x="606" y="-436" type="curve"/>
      <point x="606" y="-186" type="line"/>
      <point x="592" y="-190"/>
      <point x="566" y="-198"/>
      <point x="532" y="-198" type="curve"/>
      <point x="474" y="-198"/>
      <point x="442" y="-176"/>
      <point x="442" y="-136" type="curve" smooth="yes"/>
      <point x="442" y="-78"/>
      <point x="502" y="-36"/>
      <point x="600" y="0" type="curve"/>
      <point x="510" y="82" type="line"/>
      <point x="288" y="54" type="line"/>
      <point x="288" y="-30" type="line"/>
      <point x="212" y="-62"/>
      <point x="128" y="-138"/>
      <point x="128" y="-256" type="curve" smooth="yes"/>
      <point x="128" y="-368"/>
      <point x="214" y="-456"/>
    </contour>
  </outline>
</glyph>
<glyph name="macronbelowcomb" format="2">
  <unicode hex="0331"/>
  <anchor x="600" y="0" name="_bottom"/>
  <anchor x="600" y="0" name="bottom"/>
  <outline>
    <contour>
      <point x="228" y="-422" type="line"/>
      <point x="340" y="-422"/>
      <point x="464" y="-422"/>
      <point x="600" y="-422" type="curve"/>
      <point x="736" y="-422"/>
      <point x="860" y="-422"/>
      <point x="972" y="-422" type="curve"/>
      <point x="972" y="-102" type="line"/>
      <point x="860" y="-102"/>
      <point x="736" y="-102"/>
      <point x="600" y="-102" type="curve"/>
      <point x="464" y="-102"/>
      <point x="340" y="-102"/>
      <point x="228" y="-102" type="curve"/>
    </contour>
  </outline>
</glyph>
<glyph name="pi" format="2">
  <advance width="1296"/>
  <unicode hex="03C0"/>
  <outline>
    <contour>
      <point x="724" y="0" type="curve"/>
      <point x="1154" y="0" type="line"/>
      <point x="1154" y="142"/>
      <point x="1154" y="278"/>
      <point x="1154" y="408" type="curve"/>
      <point x="1154" y="1004" type="line"/>
      <point x="724" y="1004" type="line"/>
      <point x="724" y="710"/>
      <point x="724" y="518"/>
      <point x="724" y="330" type="curve"/>
      <point x="724" y="304"/>
      <point x="724" y="128"/>
    </contour>
    <contour>
      <point x="152" y="0" type="curve"/>
      <point x="582" y="0" type="line"/>
      <point x="582" y="138"/>
      <point x="582" y="258"/>
      <point x="582" y="400" type="curve"/>
      <point x="582" y="526" type="line"/>
      <point x="582" y="686"/>
      <point x="582" y="850"/>
      <point x="582" y="1004" type="curve"/>
      <point x="152" y="1004" type="line"/>
      <point x="152" y="860"/>
      <point x="152" y="738"/>
      <point x="152" y="526" type="curve"/>
      <point x="152" y="426" type="line"/>
      <point x="152" y="258"/>
      <point x="152" y="140"/>
    </contour>
    <contour>
      <point x="24" y="678" type="line"/>
      <point x="290" y="678" type="line"/>
      <point x="916" y="678" type="line"/>
      <point x="1022" y="678"/>
      <point x="1140" y="678"/>
      <point x="1256" y="678" type="curve"/>
      <point x="1256" y="1004" type="line"/>
      <point x="24" y="1004" type="line"/>
    </contour>
  </outline>
</glyph>
<glyph name="daggerdbl" format="2">
  <advance width="1220"/>
  <unicode hex="2021"/>
  <outline>
    <contour>
      <point x="400" y="0" type="curve"/>
      <point x="820" y="0" type="line"/>
      <point x="820" y="152"/>
      <point x="820" y="282"/>
      <point x="820" y="466" type="curve"/>
      <point x="820" y="898" type="line"/>
      <point x="820" y="1056"/>
      <point x="820" y="1214"/>
      <point x="820" y="1380" type="curve"/>
      <point x="400" y="1380" type="line"/>
      <point x="400" y="1214"/>
      <point x="400" y="1056"/>
      <point x="400" y="898" type="curve"/>
      <point x="400" y="466" type="line"/>
      <point x="400" y="282"/>
      <point x="400" y="152"/>
    </contour>
    <contour>
      <point x="80" y="788" type="line"/>
      <point x="230" y="788"/>
      <point x="382" y="788"/>
      <point x="496" y="788" type="curve"/>
      <point x="724" y="788" type="line"/>
      <point x="838" y="788"/>
      <point x="990" y="788"/>
      <point x="1140" y="788" type="curve"/>
      <point x="1140" y="1128" type="line"/>
      <point x="990" y="1128"/>
      <point x="838" y="1128"/>
      <point x="724" y="1128" type="curve"/>
      <point x="496" y="1128" type="line"/>
      <point x="382" y="1128"/>
      <point x="230" y="1128"/>
      <point x="80" y="1128" type="curve"/>
    </contour>
    <contour>
      <point x="80" y="288" type="line"/>
      <point x="230" y="288"/>
      <point x="382" y="288"/>
      <point x="496" y="288" type="curve"/>
      <point x="724" y="288" type="line"/>
      <point x="838" y="288"/>
      <point x="990" y="288"/>
      <point x="1140" y="288" type="curve"/>
      <point x="1140" y="628" type="line"/>
      <point x="990" y="628"/>
      <point x="838" y="628"/>
      <point x="724" y="628" type="curve"/>
      <point x="496" y="628" type="line"/>
      <point x="382" y="628"/>
      <point x="230" y="628"/>
      <point x="80" y="628" type="curve"/>
    </contour>
  </outline>
</glyph>
<glyph name="colonsign" format="2">
  <advance width="1302"/>
  <unicode hex="20A1"/>
  <outline>
    <contour>
      <point x="786" y="-30" type="curve" smooth="yes"/>
      <point x="942" y="-30"/>
      <point x="1112" y="-6"/>
      <point x="1222" y="48" type="curve"/>
      <point x="1202" y="474" type="line"/>
      <point x="1078" y="376"/>
      <point x="958" y="348"/>
      <point x="854" y="348" type="curve"/>
      <point x="636" y="348"/>
      <point x="536" y="506"/>
      <point x="536" y="688" type="curve" smooth="yes"/>
      <point x="536" y="914"/>
      <point x="660" y="1018"/>
      <point x="820" y="1018" type="curve"/>
      <point x="918" y="1018"/>
      <point x="1048" y="980"/>
      <point x="1196" y="880" type="curve"/>
      <point x="1228" y="1312" type="line"/>
      <point x="1110" y="1370"/>
      <point x="930" y="1410"/>
      <point x="762" y="1410" type="curve" smooth="yes"/>
      <point x="294" y="1410"/>
      <point x="48" y="1098"/>
      <point x="48" y="686" type="curve" smooth="yes"/>
      <point x="48" y="240"/>
      <point x="334" y="-30"/>
    </contour>
    <contour>
      <point x="240" y="-274" type="curve"/>
      <point x="524" y="-274" type="line"/>
      <point x="582" y="2"/>
      <point x="646" y="304"/>
      <point x="662" y="380" type="curve"/>
      <point x="782" y="948" type="line"/>
      <point x="798" y="1024"/>
      <point x="864" y="1332"/>
      <point x="922" y="1606" type="curve"/>
      <point x="638" y="1606" type="line"/>
      <point x="580" y="1332"/>
      <point x="514" y="1024"/>
      <point x="498" y="948" type="curve"/>
      <point x="378" y="380" type="line"/>
      <point x="362" y="304"/>
      <point x="298" y="2"/>
    </contour>
    <contour>
      <point x="606" y="-274" type="curve"/>
      <point x="890" y="-274" type="line"/>
      <point x="948" y="2"/>
      <point x="1012" y="304"/>
      <point x="1028" y="380" type="curve"/>
      <point x="1148" y="948" type="line"/>
      <point x="1164" y="1024"/>
      <point x="1230" y="1332"/>
      <point x="1288" y="1606" type="curve"/>
      <point x="1004" y="1606" type="line"/>
      <point x="946" y="1332"/>
      <point x="880" y="1024"/>
      <point x="864" y="948" type="curve"/>
      <point x="744" y="380" type="line"/>
      <point x="728" y="304"/>
      <point x="664" y="2"/>
    </contour>
  </outline>
</glyph>
<glyph name="franc" format="2">
  <advance width="1212"/>
  <unicode hex="20A3"/>
  <outline>
    <contour>
      <point x="192" y="0" type="curve"/>
      <point x="650" y="0" type="line"/>
      <point x="650" y="142"/>
      <point x="650" y="266"/>
      <point x="650" y="440" type="curve"/>
      <point x="650" y="846" type="line"/>
      <point x="650" y="1018"/>
      <point x="650" y="1146"/>
      <point x="650" y="1304" type="curve"/>
      <point x="650" y="1380" type="line"/>
      <point x="192" y="1380" type="line"/>
      <point x="192" y="1232"/>
      <point x="192" y="1104"/>
      <point x="192" y="922" type="curve"/>
      <point x="192" y="440" type="line"/>
      <point x="192" y="266"/>
      <point x="192" y="142"/>
    </contour>
    <contour>
      <point x="560" y="996" type="line"/>
      <point x="764" y="996" type="line"/>
      <point x="922" y="996"/>
      <point x="1040" y="996"/>
      <point x="1146" y="996" type="curve"/>
      <point x="1146" y="1380" type="line"/>
      <point x="560" y="1380" type="line"/>
    </contour>
    <contour>
      <point x="530" y="544" type="line"/>
      <point x="762" y="544" type="line"/>
      <point x="908" y="544"/>
      <point x="1016" y="544"/>
      <point x="1124" y="544" type="curve"/>
      <point x="1124" y="852" type="line"/>
      <point x="1022" y="852"/>
      <point x="916" y="852"/>
      <point x="762" y="852" type="curve"/>
      <point x="530" y="852" type="line"/>
    </contour>
    <contour>
      <point x="50" y="170" type="line"/>
      <point x="200" y="170"/>
      <point x="352" y="170"/>
      <point x="466" y="170" type="curve"/>
      <point x="554" y="170" type="line"/>
      <point x="668" y="170"/>
      <point x="820" y="170"/>
      <point x="970" y="170" type="curve"/>
      <point x="970" y="430" type="line"/>
      <point x="820" y="430"/>
      <point x="668" y="430"/>
      <point x="554" y="430" type="curve"/>
      <point x="466" y="430" type="line"/>
      <point x="352" y="430"/>
      <point x="200" y="430"/>
      <point x="50" y="430" type="curve"/>
    </contour>
  </outline>
</glyph>
<glyph name="naira" format="2">
  <advance width="1708"/>
  <unicode hex="20A6"/>
  <outline>
    <contour>
      <point x="232" y="0" type="curve"/>
      <point x="670" y="0" type="line"/>
      <point x="670" y="142"/>
      <point x="670" y="266"/>
      <point x="670" y="440" type="curve"/>
      <point x="670" y="600" type="line"/>
      <point x="700" y="600" type="line"/>
      <point x="848" y="364" type="line"/>
      <point x="936" y="224"/>
      <point x="1010" y="106"/>
      <point x="1076" y="0" type="curve"/>
      <point x="1476" y="0" type="line"/>
      <point x="1476" y="142"/>
      <point x="1476" y="266"/>
      <point x="1476" y="440" type="curve"/>
      <point x="1476" y="922" type="line"/>
      <point x="1476" y="1104"/>
      <point x="1476" y="1234"/>
      <point x="1476" y="1380" type="curve"/>
      <point x="1038" y="1380" type="line"/>
      <point x="1038" y="1234"/>
      <point x="1038" y="1104"/>
      <point x="1038" y="922" type="curve"/>
      <point x="1038" y="792" type="line"/>
      <point x="1006" y="792" type="line"/>
      <point x="858" y="1026" type="line"/>
      <point x="786" y="1140"/>
      <point x="712" y="1256"/>
      <point x="634" y="1380" type="curve"/>
      <point x="232" y="1380" type="line"/>
      <point x="232" y="1234"/>
      <point x="232" y="1104"/>
      <point x="232" y="922" type="curve"/>
      <point x="232" y="440" type="line"/>
      <point x="232" y="266"/>
      <point x="232" y="142"/>
    </contour>
    <contour>
      <point x="50" y="566" type="line"/>
      <point x="200" y="566"/>
      <point x="352" y="566"/>
      <point x="466" y="566" type="curve"/>
      <point x="1242" y="566" type="line"/>
      <point x="1356" y="566"/>
      <point x="1508" y="566"/>
      <point x="1658" y="566" type="curve"/>
      <point x="1658" y="866" type="line"/>
      <point x="1508" y="866"/>
      <point x="1356" y="866"/>
      <point x="1242" y="866" type="curve"/>
      <point x="466" y="866" type="line"/>
      <point x="352" y="866"/>
      <point x="200" y="866"/>
      <point x="50" y="866" type="curve"/>
    </contour>
  </outline>
</glyph>
<glyph name="dong" format="2">
  <advance width="1156"/>
  <unicode hex="20AB"/>
  <outline>
    <contour>
      <point x="388" y="266" type="curve" smooth="yes"/>
      <point x="490" y="266"/>
      <point x="562" y="310"/>
      <point x="618" y="392" type="curve"/>
      <point x="640" y="392" type="line"/>
      <point x="664" y="292" type="line"/>
      <point x="968" y="292" type="line"/>
      <point x="968" y="402"/>
      <point x="968" y="498"/>
      <point x="968" y="632" type="curve"/>
      <point x="968" y="1080" type="line"/>
      <point x="968" y="1234"/>
      <point x="968" y="1370"/>
      <point x="968" y="1492" type="curve"/>
      <point x="604" y="1466" type="line"/>
      <point x="604" y="1330"/>
      <point x="604" y="1206"/>
      <point x="604" y="1080" type="curve"/>
      <point x="604" y="1022" type="line"/>
      <point x="578" y="1022" type="line"/>
      <point x="536" y="1094"/>
      <point x="472" y="1122"/>
      <point x="390" y="1122" type="curve" smooth="yes"/>
      <point x="174" y="1122"/>
      <point x="70" y="932"/>
      <point x="70" y="694" type="curve" smooth="yes"/>
      <point x="70" y="474"/>
      <point x="166" y="266"/>
    </contour>
    <contour>
      <point x="82" y="0" type="line"/>
      <point x="232" y="0"/>
      <point x="384" y="0"/>
      <point x="498" y="0" type="curve"/>
      <point x="586" y="0" type="line"/>
      <point x="700" y="0"/>
      <point x="852" y="0"/>
      <point x="1002" y="0" type="curve"/>
      <point x="1002" y="200" type="line"/>
      <point x="852" y="200"/>
      <point x="700" y="200"/>
      <point x="586" y="200" type="curve"/>
      <point x="498" y="200" type="line"/>
      <point x="384" y="200"/>
      <point x="232" y="200"/>
      <point x="82" y="200" type="curve"/>
    </contour>
    <contour>
      <point x="536" y="568" type="curve"/>
      <point x="476" y="568"/>
      <point x="442" y="630"/>
      <point x="442" y="690" type="curve" smooth="yes"/>
      <point x="442" y="756"/>
      <point x="474" y="814"/>
      <point x="536" y="814" type="curve"/>
      <point x="564" y="814"/>
      <point x="590" y="802"/>
      <point x="604" y="788" type="curve"/>
      <point x="604" y="610" type="line"/>
      <point x="594" y="588"/>
      <point x="570" y="568"/>
    </contour>
    <contour>
      <point x="340" y="1192" type="line"/>
      <point x="476" y="1192"/>
      <point x="614" y="1192"/>
      <point x="718" y="1192" type="curve"/>
      <point x="748" y="1192" type="line"/>
      <point x="852" y="1192"/>
      <point x="990" y="1192"/>
      <point x="1126" y="1192" type="curve"/>
      <point x="1126" y="1372" type="line"/>
      <point x="990" y="1372"/>
      <point x="852" y="1372"/>
      <point x="748" y="1372" type="curve"/>
      <point x="718" y="1372" type="line"/>
      <point x="614" y="1372"/>
      <point x="476" y="1372"/>
      <point x="340" y="1372" type="curve"/>
    </contour>
  </outline>
</glyph>
<glyph name="rupeeIndian" format="2">
  <advance width="1290"/>
  <unicode hex="20B9"/>
  <outline>
    <contour>
      <point x="608" y="448" type="curve" smooth="yes"/>
      <point x="870" y="448"/>
      <point x="986" y="610"/>
      <point x="986" y="782" type="curve" smooth="yes"/>
      <point x="986" y="934"/>
      <point x="928" y="1010"/>
      <point x="824" y="1048" type="curve"/>
      <point x="824" y="1080" type="line"/>
      <point x="902" y="1080" type="line" smooth="yes"/>
      <point x="982" y="1080"/>
      <point x="1114" y="1080"/>
      <point x="1220" y="1080" type="curve"/>
      <point x="1220" y="1380" type="line"/>
      <point x="100" y="1380" type="line"/>
      <point x="100" y="1080" type="line"/>
      <point x="184" y="1080"/>
      <point x="270" y="1080"/>
      <point x="354" y="1080" type="curve"/>
      <point x="472" y="1080"/>
      <point x="518" y="1002"/>
      <point x="518" y="866" type="curve" smooth="yes"/>
      <point x="518" y="682"/>
      <point x="446" y="650"/>
      <point x="344" y="650" type="curve"/>
      <point x="278" y="650"/>
      <point x="188" y="650"/>
      <point x="100" y="650" type="curve"/>
      <point x="100" y="470" type="line"/>
      <point x="272" y="470" type="line"/>
      <point x="460" y="448" type="line"/>
      <point x="494" y="448"/>
      <point x="566" y="448"/>
    </contour>
    <contour>
      <point x="596" y="0" type="curve"/>
      <point x="1186" y="0" type="line"/>
      <point x="1068" y="106"/>
      <point x="910" y="250"/>
      <point x="786" y="362" type="curve"/>
      <point x="496" y="626" type="line"/>
      <point x="100" y="470" type="line"/>
      <point x="332" y="250" type="line"/>
      <point x="414" y="174"/>
      <point x="504" y="88"/>
    </contour>
    <contour>
      <point x="100" y="774" type="line"/>
      <point x="250" y="774"/>
      <point x="402" y="774"/>
      <point x="516" y="774" type="curve"/>
      <point x="804" y="774" type="line"/>
      <point x="918" y="774"/>
      <point x="1070" y="774"/>
      <point x="1220" y="774" type="curve"/>
      <point x="1220" y="954" type="line"/>
      <point x="1070" y="954"/>
      <point x="918" y="954"/>
      <point x="804" y="954" type="curve"/>
      <point x="516" y="954" type="line"/>
      <point x="402" y="954"/>
      <point x="250" y="954"/>
      <point x="100" y="954" type="curve"/>
    </contour>
  </outline>
</glyph>
<glyph name="manat" format="2">
  <advance width="1572"/>
  <unicode hex="20BC"/>
  <outline>
    <contour>
      <point x="80" y="0" type="curve"/>
      <point x="528" y="0" type="line"/>
      <point x="528" y="142"/>
      <point x="528" y="266"/>
      <point x="528" y="440" type="curve"/>
      <point x="528" y="738"/>
      <point x="594" y="876"/>
      <point x="800" y="876" type="curve"/>
      <point x="998" y="876"/>
      <point x="1044" y="736"/>
      <point x="1044" y="440" type="curve"/>
      <point x="1044" y="266"/>
      <point x="1044" y="142"/>
      <point x="1044" y="0" type="curve"/>
      <point x="1492" y="0" type="line"/>
      <point x="1492" y="142"/>
      <point x="1492" y="266"/>
      <point x="1492" y="440" type="curve"/>
      <point x="1492" y="942"/>
      <point x="1316" y="1252"/>
      <point x="794" y="1252" type="curve" smooth="yes"/>
      <point x="272" y="1252"/>
      <point x="80" y="942"/>
      <point x="80" y="440" type="curve"/>
      <point x="80" y="266"/>
      <point x="80" y="142"/>
    </contour>
    <contour>
      <point x="658" y="0" type="curve"/>
      <point x="918" y="0" type="line"/>
      <point x="918" y="234"/>
      <point x="918" y="438"/>
      <point x="918" y="658" type="curve"/>
      <point x="918" y="800" type="line"/>
      <point x="918" y="1016"/>
      <point x="918" y="1222"/>
      <point x="918" y="1458" type="curve"/>
      <point x="658" y="1458" type="line"/>
      <point x="658" y="1222"/>
      <point x="658" y="1016"/>
      <point x="658" y="800" type="curve"/>
      <point x="658" y="658" type="line"/>
      <point x="658" y="442"/>
      <point x="658" y="236"/>
    </contour>
  </outline>
</glyph>
<glyph name="literSign" format="2">
  <advance width="1166"/>
  <unicode hex="2113"/>
  <outline>
    <contour>
      <point x="816" y="-32" type="curve" smooth="yes"/>
      <point x="918" y="-32"/>
      <point x="1008" y="-16"/>
      <point x="1084" y="16" type="curve"/>
      <point x="1068" y="388" type="line"/>
      <point x="1010" y="348"/>
      <point x="928" y="324"/>
      <point x="858" y="324" type="curve"/>
      <point x="710" y="324"/>
      <point x="610" y="368"/>
      <point x="610" y="592" type="curve" smooth="yes"/>
      <point x="610" y="910" type="line" smooth="yes"/>
      <point x="610" y="1092"/>
      <point x="656" y="1130"/>
      <point x="704" y="1130" type="curve"/>
      <point x="752" y="1130"/>
      <point x="810" y="1088"/>
      <point x="810" y="974" type="curve" smooth="yes"/>
      <point x="810" y="822"/>
      <point x="718" y="644"/>
      <point x="466" y="644" type="curve" smooth="yes"/>
      <point x="378" y="644"/>
      <point x="182" y="666"/>
      <point x="48" y="710" type="curve"/>
      <point x="34" y="486" type="line"/>
      <point x="128" y="456"/>
      <point x="272" y="426"/>
      <point x="474" y="426" type="curve" smooth="yes"/>
      <point x="970" y="426"/>
      <point x="1110" y="718"/>
      <point x="1110" y="966" type="curve" smooth="yes"/>
      <point x="1110" y="1270"/>
      <point x="926" y="1412"/>
      <point x="684" y="1412" type="curve" smooth="yes"/>
      <point x="330" y="1412"/>
      <point x="194" y="1192"/>
      <point x="194" y="838" type="curve" smooth="yes"/>
      <point x="194" y="578" type="line" smooth="yes"/>
      <point x="194" y="162"/>
      <point x="426" y="-32"/>
    </contour>
  </outline>
</glyph>
<glyph name="trademark" format="2">
  <advance width="1794"/>
  <unicode hex="2122"/>
  <outline>
    <contour>
      <point x="730" y="620" type="curve"/>
      <point x="1016" y="620" type="line"/>
      <point x="1024" y="684"/>
      <point x="1032" y="748"/>
      <point x="1038" y="796" type="curve"/>
      <point x="1052" y="910" type="line"/>
      <point x="1072" y="910" type="line"/>
      <point x="1104" y="800" type="line"/>
      <point x="1122" y="736"/>
      <point x="1140" y="676"/>
      <point x="1156" y="620" type="curve"/>
      <point x="1362" y="620" type="line"/>
      <point x="1372" y="680"/>
      <point x="1382" y="742"/>
      <point x="1390" y="790" type="curve"/>
      <point x="1410" y="910" type="line"/>
      <point x="1430" y="910" type="line"/>
      <point x="1444" y="802" type="line"/>
      <point x="1452" y="744"/>
      <point x="1460" y="680"/>
      <point x="1468" y="620" type="curve"/>
      <point x="1764" y="620" type="line"/>
      <point x="1752" y="710"/>
      <point x="1740" y="800"/>
      <point x="1728" y="890" type="curve"/>
      <point x="1694" y="1148" type="line"/>
      <point x="1682" y="1238"/>
      <point x="1670" y="1328"/>
      <point x="1658" y="1418" type="curve"/>
      <point x="1346" y="1418" type="line"/>
      <point x="1332" y="1370"/>
      <point x="1316" y="1314"/>
      <point x="1302" y="1266" type="curve"/>
      <point x="1262" y="1126" type="line"/>
      <point x="1242" y="1126" type="line"/>
      <point x="1194" y="1268" type="line"/>
      <point x="1178" y="1316"/>
      <point x="1162" y="1364"/>
      <point x="1144" y="1418" type="curve"/>
      <point x="830" y="1418" type="line"/>
      <point x="818" y="1322"/>
      <point x="808" y="1242"/>
      <point x="796" y="1148" type="curve"/>
      <point x="764" y="890" type="line"/>
      <point x="752" y="794"/>
      <point x="742" y="716"/>
    </contour>
    <contour>
      <point x="220" y="620" type="curve"/>
      <point x="532" y="620" type="line"/>
      <point x="532" y="700"/>
      <point x="532" y="782"/>
      <point x="532" y="874" type="curve"/>
      <point x="532" y="1100" type="line"/>
      <point x="532" y="1194"/>
      <point x="532" y="1282"/>
      <point x="532" y="1368" type="curve"/>
      <point x="532" y="1418" type="line"/>
      <point x="220" y="1418" type="line"/>
      <point x="220" y="1368" type="line"/>
      <point x="220" y="1282"/>
      <point x="220" y="1194"/>
      <point x="220" y="1100" type="curve"/>
      <point x="220" y="874" type="line"/>
      <point x="220" y="782"/>
      <point x="220" y="700"/>
    </contour>
    <contour>
      <point x="30" y="1150" type="line"/>
      <point x="84" y="1150"/>
      <point x="144" y="1150"/>
      <point x="212" y="1150" type="curve"/>
      <point x="272" y="1150" type="line"/>
      <point x="272" y="1418" type="line"/>
      <point x="30" y="1418" type="line"/>
    </contour>
    <contour>
      <point x="480" y="1150" type="line"/>
      <point x="540" y="1150" type="line"/>
      <point x="608" y="1150"/>
      <point x="668" y="1150"/>
      <point x="722" y="1150" type="curve"/>
      <point x="722" y="1418" type="line"/>
      <point x="480" y="1418" type="line"/>
    </contour>
  </outline>
</glyph>
<glyph name="partialdiff" format="2">
  <advance width="1196"/>
  <unicode hex="2202"/>
  <outline>
    <contour>
      <point x="604" y="-32" type="curve" smooth="yes"/>
      <point x="1014" y="-32"/>
      <point x="1160" y="228"/>
      <point x="1160" y="650" type="curve" smooth="yes"/>
      <point x="1160" y="1232"/>
      <point x="872" y="1412"/>
      <point x="518" y="1412" type="curve" smooth="yes"/>
      <point x="360" y="1412"/>
      <point x="228" y="1382"/>
      <point x="102" y="1344" type="curve"/>
      <point x="136" y="940" type="line"/>
      <point x="248" y="998"/>
      <point x="378" y="1032"/>
      <point x="486" y="1032" type="curve"/>
      <point x="668" y="1032"/>
      <point x="708" y="934"/>
      <point x="708" y="670" type="curve" smooth="yes"/>
      <point x="708" y="424"/>
      <point x="674" y="322"/>
      <point x="602" y="322" type="curve"/>
      <point x="530" y="322"/>
      <point x="488" y="392"/>
      <point x="488" y="458" type="curve" smooth="yes"/>
      <point x="488" y="522"/>
      <point x="528" y="588"/>
      <point x="600" y="588" type="curve"/>
      <point x="628" y="588"/>
      <point x="684" y="578"/>
      <point x="736" y="520" type="curve"/>
      <point x="828" y="634"/>
      <point x="802" y="732"/>
      <point x="716" y="846" type="curve"/>
      <point x="674" y="808" type="line"/>
      <point x="626" y="844"/>
      <point x="514" y="874"/>
      <point x="426" y="874" type="curve" smooth="yes"/>
      <point x="196" y="874"/>
      <point x="36" y="732"/>
      <point x="36" y="478" type="curve" smooth="yes"/>
      <point x="36" y="210"/>
      <point x="200" y="-32"/>
    </contour>
  </outline>
</glyph>
<glyph name="product" format="2">
  <advance width="1682"/>
  <unicode hex="220F"/>
  <outline>
    <contour>
      <point x="966" y="-384" type="curve"/>
      <point x="1456" y="-384" type="line"/>
      <point x="1456" y="-198"/>
      <point x="1456" y="-16"/>
      <point x="1456" y="194" type="curve"/>
      <point x="1456" y="748" type="line"/>
      <point x="1456" y="960"/>
      <point x="1456" y="1142"/>
      <point x="1456" y="1328" type="curve"/>
      <point x="1456" y="1426" type="line"/>
      <point x="966" y="1426" type="line"/>
      <point x="966" y="1328" type="line"/>
      <point x="966" y="1142"/>
      <point x="966" y="968"/>
      <point x="966" y="748" type="curve"/>
      <point x="966" y="194" type="line"/>
      <point x="966" y="-18"/>
      <point x="966" y="-200"/>
    </contour>
    <contour>
      <point x="226" y="-384" type="curve"/>
      <point x="716" y="-384" type="line"/>
      <point x="716" y="-198"/>
      <point x="716" y="-16"/>
      <point x="716" y="194" type="curve"/>
      <point x="716" y="748" type="line"/>
      <point x="716" y="960"/>
      <point x="716" y="1142"/>
      <point x="716" y="1328" type="curve"/>
      <point x="716" y="1426" type="line"/>
      <point x="226" y="1426" type="line"/>
      <point x="226" y="1328" type="line"/>
      <point x="226" y="1142"/>
      <point x="226" y="968"/>
      <point x="226" y="748" type="curve"/>
      <point x="226" y="194" type="line"/>
      <point x="226" y="-18"/>
      <point x="226" y="-200"/>
    </contour>
    <contour>
      <point x="60" y="1022" type="line"/>
      <point x="156" y="1022"/>
      <point x="258" y="1022"/>
      <point x="398" y="1022" type="curve"/>
      <point x="1284" y="1022" type="line"/>
      <point x="1424" y="1022"/>
      <point x="1526" y="1022"/>
      <point x="1622" y="1022" type="curve"/>
      <point x="1622" y="1426" type="line"/>
      <point x="60" y="1426" type="line"/>
    </contour>
  </outline>
</glyph>
<glyph name="radical" format="2">
  <advance width="1318"/>
  <unicode hex="221A"/>
  <outline>
    <contour>
      <point x="490" y="0" type="curve"/>
      <point x="1042" y="0" type="line"/>
      <point x="1070" y="144"/>
      <point x="1094" y="270"/>
      <point x="1130" y="456" type="curve"/>
      <point x="1264" y="1162" type="line"/>
      <point x="1302" y="1356"/>
      <point x="1326" y="1482"/>
      <point x="1356" y="1636" type="curve"/>
      <point x="954" y="1636" type="line"/>
      <point x="934" y="1524"/>
      <point x="918" y="1436"/>
      <point x="894" y="1302" type="curve"/>
      <point x="750" y="502" type="line"/>
      <point x="718" y="502" type="line"/>
      <point x="660" y="736" type="line"/>
      <point x="640" y="818"/>
      <point x="616" y="914"/>
      <point x="594" y="1004" type="curve"/>
      <point x="160" y="1004" type="line"/>
      <point x="292" y="602" type="line"/>
      <point x="372" y="360"/>
      <point x="428" y="188"/>
    </contour>
    <contour>
      <point x="40" y="624" type="line"/>
      <point x="190" y="624"/>
      <point x="332" y="624"/>
      <point x="456" y="624" type="curve"/>
      <point x="456" y="1004" type="line"/>
      <point x="332" y="1004"/>
      <point x="190" y="1004"/>
      <point x="40" y="1004" type="curve"/>
    </contour>
  </outline>
</glyph>
<glyph name="integral" format="2">
  <advance width="872"/>
  <unicode hex="222B"/>
  <outline>
    <contour>
      <point x="254" y="-414" type="curve" smooth="yes"/>
      <point x="460" y="-414"/>
      <point x="658" y="-336"/>
      <point x="658" y="56" type="curve" smooth="yes"/>
      <point x="658" y="224"/>
      <point x="658" y="712"/>
      <point x="658" y="1040" type="curve" smooth="yes"/>
      <point x="658" y="1118"/>
      <point x="688" y="1140"/>
      <point x="732" y="1140" type="curve" smooth="yes"/>
      <point x="764" y="1140"/>
      <point x="804" y="1130"/>
      <point x="844" y="1110" type="curve"/>
      <point x="872" y="1460" type="line"/>
      <point x="830" y="1476"/>
      <point x="712" y="1498"/>
      <point x="618" y="1498" type="curve" smooth="yes"/>
      <point x="412" y="1498"/>
      <point x="214" y="1420"/>
      <point x="214" y="1028" type="curve" smooth="yes"/>
      <point x="214" y="860"/>
      <point x="214" y="372"/>
      <point x="214" y="44" type="curve" smooth="yes"/>
      <point x="214" y="-34"/>
      <point x="184" y="-56"/>
      <point x="140" y="-56" type="curve" smooth="yes"/>
      <point x="108" y="-56"/>
      <point x="68" y="-46"/>
      <point x="28" y="-26" type="curve"/>
      <point x="0" y="-376" type="line"/>
      <point x="40" y="-392"/>
      <point x="158" y="-414"/>
    </contour>
  </outline>
</glyph>
<glyph name="greaterequal" format="2">
  <advance width="1180"/>
  <unicode hex="2265"/>
  <outline>
    <contour>
      <point x="80" y="0" type="line"/>
      <point x="230" y="0"/>
      <point x="382" y="0"/>
      <point x="496" y="0" type="curve"/>
      <point x="684" y="0" type="line"/>
      <point x="798" y="0"/>
      <point x="950" y="0"/>
      <point x="1100" y="0" type="curve"/>
      <point x="1100" y="380" type="line"/>
      <point x="950" y="380"/>
      <point x="798" y="380"/>
      <point x="684" y="380" type="curve"/>
      <point x="496" y="380" type="line"/>
      <point x="382" y="380"/>
      <point x="230" y="380"/>
      <point x="80" y="380" type="curve"/>
    </contour>
    <contour>
      <point x="80" y="426" type="line"/>
      <point x="230" y="478"/>
      <point x="372" y="530"/>
      <point x="496" y="574" type="curve"/>
      <point x="684" y="640" type="line"/>
      <point x="808" y="684"/>
      <point x="950" y="736"/>
      <point x="1100" y="788" type="curve"/>
      <point x="1100" y="1168" type="line"/>
      <point x="950" y="1220"/>
      <point x="808" y="1272"/>
      <point x="684" y="1316" type="curve"/>
      <point x="496" y="1382" type="line"/>
      <point x="372" y="1426"/>
      <point x="230" y="1478"/>
      <point x="80" y="1530" type="curve"/>
      <point x="80" y="1130" type="line"/>
      <point x="174" y="1100"/>
      <point x="268" y="1070"/>
      <point x="362" y="1040" type="curve"/>
      <point x="510" y="994" type="line"/>
      <point x="510" y="962" type="line"/>
      <point x="362" y="916" type="line"/>
      <point x="268" y="886"/>
      <point x="174" y="856"/>
      <point x="80" y="826" type="curve"/>
    </contour>
  </outline>
</glyph>
<glyph name="H.bar" format="2">
  <advance width="1502"/>
  <anchor x="752" y="0" name="bottom"/>
  <anchor x="752" y="714" name="center"/>
  <anchor x="752" y="1426" name="top"/>
  <anchor x="76" y="1426" name="topleft"/>
  <outline>
    <contour>
      <point x="918" y="0" type="curve"/>
      <point x="1410" y="0" type="line"/>
      <point x="1410" y="148"/>
      <point x="1410" y="276"/>
      <point x="1410" y="458" type="curve"/>
      <point x="1410" y="948" type="line"/>
      <point x="1410" y="1138"/>
      <point x="1410" y="1272"/>
      <point x="1410" y="1426" type="curve"/>
      <point x="918" y="1426" type="line"/>
      <point x="918" y="1272"/>
      <point x="918" y="1138"/>
      <point x="918" y="948" type="curve"/>
      <point x="918" y="458" type="line"/>
      <point x="918" y="276"/>
      <point x="918" y="148"/>
    </contour>
    <contour>
      <point x="92" y="0" type="curve"/>
      <point x="584" y="0" type="line"/>
      <point x="584" y="148"/>
      <point x="584" y="276"/>
      <point x="584" y="458" type="curve"/>
      <point x="584" y="948" type="line"/>
      <point x="584" y="1138"/>
      <point x="584" y="1272"/>
      <point x="584" y="1426" type="curve"/>
      <point x="92" y="1426" type="line"/>
      <point x="92" y="1272"/>
      <point x="92" y="1138"/>
      <point x="92" y="948" type="curve"/>
      <point x="92" y="458" type="line"/>
      <point x="92" y="276"/>
      <point x="92" y="148"/>
    </contour>
    <contour>
      <point x="464" y="462" type="line"/>
      <point x="1044" y="462" type="line"/>
      <point x="1044" y="846" type="line"/>
      <point x="464" y="846" type="line"/>
    </contour>
  </outline>
</glyph>
<glyph name="_Q_tail" format="2">
  <advance width="1566"/>
  <anchor x="784" y="0" name="_bottom"/>
  <outline>
    <contour>
      <point x="1096" y="-360" type="curve"/>
      <point x="1522" y="-176" type="line"/>
      <point x="1418" y="-90"/>
      <point x="1324" y="-14"/>
      <point x="1224" y="68" type="curve"/>
      <point x="994" y="256" type="line"/>
      <point x="730" y="-4" type="line"/>
      <point x="870" y="-140" type="line"/>
      <point x="940" y="-208"/>
      <point x="1016" y="-282"/>
    </contour>
  </outline>
</glyph>
<glyph name="_slash.Lslash" format="2">
  <advance width="1214"/>
  <anchor x="584" y="714" name="_center"/>
  <outline>
    <contour>
      <point x="54" y="448" type="line"/>
      <point x="200" y="492"/>
      <point x="336" y="532"/>
      <point x="460" y="568" type="curve"/>
      <point x="568" y="600" type="line"/>
      <point x="692" y="636"/>
      <point x="830" y="678"/>
      <point x="974" y="720" type="curve"/>
      <point x="878" y="1048" type="line"/>
      <point x="732" y="1006"/>
      <point x="594" y="964"/>
      <point x="472" y="928" type="curve"/>
      <point x="362" y="896" type="line"/>
      <point x="240" y="860"/>
      <point x="106" y="820"/>
      <point x="-44" y="776" type="curve"/>
    </contour>
  </outline>
</glyph>
<glyph name="_strokeshortcomb.Eth" format="2">
  <advance width="1460"/>
  <anchor x="730" y="714" name="_center"/>
  <outline>
    <contour>
      <point x="-32" y="552" type="line"/>
      <point x="94" y="552"/>
      <point x="214" y="552"/>
      <point x="320" y="552" type="curve"/>
      <point x="416" y="552" type="line"/>
      <point x="522" y="552"/>
      <point x="642" y="552"/>
      <point x="768" y="552" type="curve"/>
      <point x="768" y="874" type="line"/>
      <point x="642" y="874"/>
      <point x="522" y="874"/>
      <point x="416" y="874" type="curve"/>
      <point x="320" y="874" type="line"/>
      <point x="214" y="874"/>
      <point x="94" y="874"/>
      <point x="-32" y="874" type="curve"/>
    </contour>
  </outline>
</glyph>
<glyph name="brevecomb.narrow" format="2">
  <anchor x="600" y="1004" name="_top"/>
  <anchor x="600" y="1438" name="top"/>
  <outline>
    <contour>
      <point x="600" y="1076" type="curve" smooth="yes"/>
      <point x="864" y="1076"/>
      <point x="986" y="1210"/>
      <point x="986" y="1522" type="curve"/>
      <point x="696" y="1522" type="line"/>
      <point x="696" y="1432"/>
      <point x="674" y="1360"/>
      <point x="600" y="1360" type="curve"/>
      <point x="526" y="1360"/>
      <point x="506" y="1432"/>
      <point x="506" y="1536" type="curve"/>
      <point x="214" y="1522" type="line"/>
      <point x="214" y="1210"/>
      <point x="338" y="1076"/>
    </contour>
  </outline>
</glyph>
<glyph name="brevecomb_gravecomb.case" format="2">
  <anchor x="599" y="1004" name="_top"/>
  <outline>
    <contour>
      <point x="598" y="1076" type="curve" smooth="yes"/>
      <point x="886" y="1076"/>
      <point x="1022" y="1196"/>
      <point x="1022" y="1444" type="curve"/>
      <point x="738" y="1444" type="line"/>
      <point x="738" y="1402"/>
      <point x="702" y="1336"/>
      <point x="598" y="1336" type="curve"/>
      <point x="496" y="1336"/>
      <point x="460" y="1402"/>
      <point x="460" y="1456" type="curve"/>
      <point x="176" y="1444" type="line"/>
      <point x="176" y="1196"/>
      <point x="314" y="1076"/>
    </contour>
    <contour>
      <point x="524" y="1488" type="curve"/>
      <point x="800" y="1490" type="line"/>
      <point x="740" y="1620"/>
      <point x="678" y="1746"/>
      <point x="620" y="1874" type="curve"/>
      <point x="240" y="1866" type="line"/>
      <point x="338" y="1734"/>
      <point x="436" y="1608"/>
    </contour>
  </outline>
</glyph>
<glyph name="circumflexcomb.case" format="2">
  <anchor x="600" y="1004" name="_top"/>
  <anchor x="600" y="1490" name="top"/>
  <outline>
    <contour>
      <point x="732" y="1104" type="curve"/>
      <point x="1044" y="1108" type="line"/>
      <point x="970" y="1238"/>
      <point x="898" y="1372"/>
      <point x="822" y="1508" type="curve"/>
      <point x="416" y="1508" type="line"/>
      <point x="526" y="1370"/>
      <point x="632" y="1234"/>
    </contour>
    <contour>
      <point x="156" y="1108" type="curve"/>
      <point x="472" y="1108" type="line"/>
      <point x="570" y="1236"/>
      <point x="676" y="1372"/>
      <point x="784" y="1508" type="curve"/>
      <point x="378" y="1508" type="line"/>
      <point x="302" y="1372"/>
      <point x="230" y="1238"/>
    </contour>
  </outline>
</glyph>
<glyph name="circumflexcomb_acutecomb.case" format="2">
  <anchor x="600" y="1004" name="_top"/>
  <outline>
    <contour>
      <point x="882" y="1408" type="curve"/>
      <point x="1158" y="1410" type="line"/>
      <point x="1248" y="1530"/>
      <point x="1344" y="1662"/>
      <point x="1442" y="1794" type="curve"/>
      <point x="1060" y="1786" type="line"/>
      <point x="1002" y="1662"/>
      <point x="942" y="1534"/>
    </contour>
    <contour>
      <point x="186" y="1108" type="curve"/>
      <point x="480" y="1108" type="line"/>
      <point x="572" y="1230"/>
      <point x="670" y="1358"/>
      <point x="772" y="1490" type="curve"/>
      <point x="394" y="1490" type="line"/>
      <point x="322" y="1360"/>
      <point x="256" y="1232"/>
    </contour>
    <contour>
      <point x="724" y="1104" type="curve"/>
      <point x="1014" y="1108" type="line"/>
      <point x="948" y="1232"/>
      <point x="878" y="1360"/>
      <point x="808" y="1490" type="curve"/>
      <point x="428" y="1490" type="line"/>
      <point x="532" y="1358"/>
      <point x="630" y="1230"/>
    </contour>
  </outline>
</glyph>
<glyph name="circumflexcomb_hookabovecomb.case" format="2">
  <anchor x="600" y="1004" name="_top"/>
  <outline>
    <contour>
      <point x="186" y="1108" type="curve"/>
      <point x="480" y="1108" type="line"/>
      <point x="572" y="1230"/>
      <point x="670" y="1358"/>
      <point x="772" y="1490" type="curve"/>
      <point x="394" y="1490" type="line"/>
      <point x="322" y="1360"/>
      <point x="256" y="1232"/>
    </contour>
    <contour>
      <point x="724" y="1104" type="curve"/>
      <point x="1014" y="1108" type="line"/>
      <point x="948" y="1232"/>
      <point x="878" y="1360"/>
      <point x="808" y="1490" type="curve"/>
      <point x="428" y="1490" type="line"/>
      <point x="532" y="1358"/>
      <point x="630" y="1230"/>
    </contour>
    <contour>
      <point x="890" y="1394" type="line"/>
      <point x="1098" y="1394" type="line"/>
      <point x="1098" y="1414" type="line"/>
      <point x="1248" y="1440"/>
      <point x="1340" y="1512"/>
      <point x="1340" y="1634" type="curve" smooth="yes"/>
      <point x="1340" y="1784"/>
      <point x="1196" y="1824"/>
      <point x="1050" y="1824" type="curve" smooth="yes"/>
      <point x="914" y="1824"/>
      <point x="812" y="1794"/>
      <point x="762" y="1776" type="curve"/>
      <point x="778" y="1566" type="line"/>
      <point x="846" y="1592"/>
      <point x="914" y="1616"/>
      <point x="982" y="1616" type="curve"/>
      <point x="1022" y="1616"/>
      <point x="1046" y="1602"/>
      <point x="1046" y="1576" type="curve" smooth="yes"/>
      <point x="1046" y="1534"/>
      <point x="970" y="1500"/>
      <point x="890" y="1488" type="curve"/>
    </contour>
  </outline>
</glyph>
<glyph name="circumflexcomb_tildecomb.case" format="2">
  <anchor x="600" y="1004" name="_top"/>
  <outline>
    <contour>
      <point x="186" y="1108" type="curve"/>
      <point x="480" y="1108" type="line"/>
      <point x="572" y="1230"/>
      <point x="670" y="1358"/>
      <point x="772" y="1490" type="curve"/>
      <point x="394" y="1490" type="line"/>
      <point x="322" y="1360"/>
      <point x="256" y="1232"/>
    </contour>
    <contour>
      <point x="724" y="1104" type="curve"/>
      <point x="1014" y="1108" type="line"/>
      <point x="948" y="1232"/>
      <point x="878" y="1360"/>
      <point x="808" y="1490" type="curve"/>
      <point x="428" y="1490" type="line"/>
      <point x="532" y="1358"/>
      <point x="630" y="1230"/>
    </contour>
    <contour>
      <point x="770" y="1520" type="curve" smooth="yes"/>
      <point x="902" y="1520"/>
      <point x="990" y="1644"/>
      <point x="990" y="1864" type="curve"/>
      <point x="792" y="1864" type="line"/>
      <point x="784" y="1836"/>
      <point x="766" y="1784"/>
      <point x="728" y="1784" type="curve"/>
      <point x="672" y="1784"/>
      <point x="598" y="1902"/>
      <point x="444" y="1902" type="curve" smooth="yes"/>
      <point x="302" y="1902"/>
      <point x="210" y="1778"/>
      <point x="210" y="1558" type="curve"/>
      <point x="408" y="1558" type="line"/>
      <point x="418" y="1586"/>
      <point x="438" y="1638"/>
      <point x="480" y="1638" type="curve"/>
      <point x="530" y="1638"/>
      <point x="610" y="1520"/>
    </contour>
  </outline>
</glyph>
<glyph name="dotaccentcomb.case" format="2">
  <anchor x="281" y="1004" name="_top"/>
  <anchor x="282" y="1442" name="top"/>
  <outline>
    <contour>
      <point x="280" y="1076" type="curve" smooth="yes"/>
      <point x="436" y="1076"/>
      <point x="530" y="1138"/>
      <point x="530" y="1294" type="curve" smooth="yes"/>
      <point x="530" y="1422"/>
      <point x="436" y="1506"/>
      <point x="282" y="1506" type="curve" smooth="yes"/>
      <point x="126" y="1506"/>
      <point x="32" y="1428"/>
      <point x="32" y="1294" type="curve" smooth="yes"/>
      <point x="32" y="1138"/>
      <point x="126" y="1076"/>
    </contour>
  </outline>
</glyph>
<glyph name="five.dnom" format="2">
  <advance width="884"/>
  <outline>
    <contour>
      <point x="416" y="-32" type="curve" smooth="yes"/>
      <point x="708" y="-32"/>
      <point x="838" y="104"/>
      <point x="838" y="296" type="curve" smooth="yes"/>
      <point x="838" y="478"/>
      <point x="712" y="576"/>
      <point x="550" y="576" type="curve" smooth="yes"/>
      <point x="500" y="576"/>
      <point x="452" y="564"/>
      <point x="414" y="548" type="curve"/>
      <point x="390" y="548" type="line"/>
      <point x="390" y="582" type="line"/>
      <point x="392" y="632"/>
      <point x="394" y="680"/>
      <point x="398" y="742" type="curve"/>
      <point x="308" y="648" type="line"/>
      <point x="452" y="648" type="line"/>
      <point x="560" y="648"/>
      <point x="684" y="648"/>
      <point x="794" y="648" type="curve"/>
      <point x="794" y="924" type="line"/>
      <point x="98" y="924" type="line"/>
      <point x="98" y="806"/>
      <point x="98" y="680"/>
      <point x="98" y="540" type="curve"/>
      <point x="98" y="374" type="line"/>
      <point x="240" y="348" type="line"/>
      <point x="276" y="378"/>
      <point x="326" y="384"/>
      <point x="362" y="384" type="curve"/>
      <point x="440" y="384"/>
      <point x="478" y="358"/>
      <point x="478" y="312" type="curve" smooth="yes"/>
      <point x="478" y="264"/>
      <point x="448" y="244"/>
      <point x="372" y="244" type="curve"/>
      <point x="286" y="244"/>
      <point x="174" y="282"/>
      <point x="70" y="330" type="curve"/>
      <point x="48" y="32" type="line"/>
      <point x="126" y="-2"/>
      <point x="266" y="-32"/>
    </contour>
  </outline>
</glyph>
<glyph name="guarani.BRACKET.140" format="2">
  <advance width="1386"/>
  <outline>
    <contour>
      <point x="790" y="-28" type="curve" smooth="yes"/>
      <point x="992" y="-28"/>
      <point x="1210" y="2"/>
      <point x="1294" y="34" type="curve"/>
      <point x="1238" y="442" type="line"/>
      <point x="1104" y="368"/>
      <point x="1002" y="338"/>
      <point x="834" y="338" type="curve"/>
      <point x="634" y="338"/>
      <point x="532" y="498"/>
      <point x="532" y="686" type="curve" smooth="yes"/>
      <point x="532" y="922"/>
      <point x="672" y="1020"/>
      <point x="828" y="1020" type="curve"/>
      <point x="932" y="1020"/>
      <point x="1078" y="980"/>
      <point x="1242" y="884" type="curve"/>
      <point x="1274" y="1312" type="line"/>
      <point x="1156" y="1366"/>
      <point x="974" y="1412"/>
      <point x="788" y="1412" type="curve" smooth="yes"/>
      <point x="312" y="1412"/>
      <point x="48" y="1118"/>
      <point x="48" y="688" type="curve" smooth="yes"/>
      <point x="48" y="260"/>
      <point x="328" y="-28"/>
    </contour>
    <contour>
      <point x="856" y="24" type="curve"/>
      <point x="1294" y="34" type="line"/>
      <point x="1294" y="180"/>
      <point x="1294" y="286"/>
      <point x="1294" y="398" type="curve"/>
      <point x="1294" y="528"/>
      <point x="1294" y="620"/>
      <point x="1294" y="732" type="curve"/>
      <point x="856" y="732" type="line"/>
      <point x="856" y="618"/>
      <point x="856" y="526"/>
      <point x="856" y="398" type="curve"/>
      <point x="856" y="284"/>
      <point x="856" y="170"/>
    </contour>
    <contour>
      <point x="612" y="-274" type="curve"/>
      <point x="932" y="-274" type="line"/>
      <point x="932" y="-114"/>
      <point x="932" y="56"/>
      <point x="932" y="186" type="curve"/>
      <point x="612" y="186" type="line"/>
      <point x="612" y="56"/>
      <point x="612" y="-114"/>
    </contour>
    <contour>
      <point x="612" y="1208" type="curve"/>
      <point x="932" y="1208" type="line"/>
      <point x="932" y="1326"/>
      <point x="932" y="1470"/>
      <point x="932" y="1606" type="curve"/>
      <point x="612" y="1606" type="line"/>
      <point x="612" y="1470"/>
      <point x="612" y="1326"/>
    </contour>
  </outline>
</glyph>
<glyph name="peso.BRACKET.140" format="2">
  <advance width="1620"/>
  <outline>
    <contour>
      <point x="636" y="410" type="line"/>
      <point x="708" y="410"/>
      <point x="826" y="410"/>
      <point x="916" y="410" type="curve"/>
      <point x="1242" y="410"/>
      <point x="1386" y="602"/>
      <point x="1386" y="902" type="curve" smooth="yes"/>
      <point x="1386" y="1278"/>
      <point x="1196" y="1380"/>
      <point x="844" y="1380" type="curve"/>
      <point x="566" y="1380"/>
      <point x="348" y="1380"/>
      <point x="232" y="1380" type="curve"/>
      <point x="664" y="1028" type="line"/>
      <point x="812" y="1028" type="line" smooth="yes"/>
      <point x="874" y="1028"/>
      <point x="912" y="982"/>
      <point x="912" y="884" type="curve" smooth="yes"/>
      <point x="912" y="774"/>
      <point x="870" y="738"/>
      <point x="802" y="738" type="curve" smooth="yes"/>
      <point x="636" y="738" type="line"/>
    </contour>
    <contour>
      <point x="232" y="0" type="curve"/>
      <point x="692" y="0" type="line"/>
      <point x="692" y="142"/>
      <point x="692" y="266"/>
      <point x="692" y="440" type="curve"/>
      <point x="692" y="846" type="line"/>
      <point x="692" y="1028"/>
      <point x="692" y="1156"/>
      <point x="692" y="1304" type="curve"/>
      <point x="232" y="1380" type="line"/>
      <point x="232" y="1234"/>
      <point x="232" y="1104"/>
      <point x="232" y="922" type="curve"/>
      <point x="232" y="440" type="line"/>
      <point x="232" y="266"/>
      <point x="232" y="142"/>
    </contour>
    <contour>
      <point x="50" y="624" type="line"/>
      <point x="198" y="624"/>
      <point x="346" y="624"/>
      <point x="460" y="624" type="curve"/>
      <point x="460" y="844" type="line"/>
      <point x="336" y="844"/>
      <point x="198" y="844"/>
      <point x="50" y="844" type="curve"/>
    </contour>
    <contour>
      <point x="50" y="922" type="line"/>
      <point x="198" y="922"/>
      <point x="336" y="922"/>
      <point x="460" y="922" type="curve"/>
      <point x="460" y="1142" type="line"/>
      <point x="346" y="1142"/>
      <point x="198" y="1142"/>
      <point x="50" y="1142" type="curve"/>
    </contour>
    <contour>
      <point x="1154" y="624" type="line"/>
      <point x="1268" y="624"/>
      <point x="1420" y="624"/>
      <point x="1570" y="624" type="curve"/>
      <point x="1570" y="844" type="line"/>
      <point x="1420" y="844"/>
      <point x="1278" y="844"/>
      <point x="1154" y="844" type="curve"/>
    </contour>
    <contour>
      <point x="1154" y="922" type="line"/>
      <point x="1278" y="922"/>
      <point x="1420" y="922"/>
      <point x="1570" y="922" type="curve"/>
      <point x="1570" y="1142" type="line"/>
      <point x="1420" y="1142"/>
      <point x="1268" y="1142"/>
      <point x="1154" y="1142" type="curve"/>
    </contour>
  </outline>
</glyph>
<glyph name="seven.dnom" format="2">
  <advance width="864"/>
  <outline>
    <contour>
      <point x="90" y="0" type="curve"/>
      <point x="478" y="0" type="line"/>
      <point x="522" y="94"/>
      <point x="566" y="186"/>
      <point x="610" y="280" type="curve"/>
      <point x="686" y="442" type="line"/>
      <point x="730" y="534"/>
      <point x="774" y="628"/>
      <point x="818" y="720" type="curve"/>
      <point x="818" y="940" type="line"/>
      <point x="38" y="940" type="line"/>
      <point x="38" y="648" type="line"/>
      <point x="150" y="648"/>
      <point x="248" y="648"/>
      <point x="348" y="648" type="curve"/>
      <point x="522" y="648" type="line"/>
      <point x="442" y="720" type="line"/>
      <point x="414" y="662"/>
      <point x="386" y="604"/>
      <point x="358" y="546" type="curve"/>
      <point x="242" y="308" type="line"/>
      <point x="192" y="206"/>
      <point x="142" y="104"/>
    </contour>
  </outline>
</glyph>
<glyph name="six.dnom" format="2">
  <advance width="944"/>
  <outline>
    <contour>
      <point x="498" y="-30" type="curve" smooth="yes"/>
      <point x="788" y="-30"/>
      <point x="902" y="136"/>
      <point x="902" y="304" type="curve" smooth="yes"/>
      <point x="902" y="482"/>
      <point x="774" y="576"/>
      <point x="596" y="576" type="curve" smooth="yes"/>
      <point x="506" y="576"/>
      <point x="440" y="550"/>
      <point x="404" y="530" type="curve"/>
      <point x="374" y="530" type="line"/>
      <point x="316" y="480"/>
      <point x="312" y="398"/>
      <point x="376" y="360" type="curve"/>
      <point x="410" y="384"/>
      <point x="450" y="388"/>
      <point x="484" y="388" type="curve"/>
      <point x="534" y="388"/>
      <point x="564" y="364"/>
      <point x="564" y="318" type="curve" smooth="yes"/>
      <point x="564" y="274"/>
      <point x="534" y="246"/>
      <point x="486" y="246" type="curve"/>
      <point x="426" y="246"/>
      <point x="378" y="292"/>
      <point x="378" y="456" type="curve" smooth="yes"/>
      <point x="378" y="618"/>
      <point x="410" y="674"/>
      <point x="554" y="674" type="curve"/>
      <point x="636" y="674"/>
      <point x="730" y="654"/>
      <point x="812" y="616" type="curve"/>
      <point x="838" y="910" type="line"/>
      <point x="752" y="932"/>
      <point x="650" y="954"/>
      <point x="530" y="954" type="curve" smooth="yes"/>
      <point x="262" y="954"/>
      <point x="46" y="836"/>
      <point x="46" y="464" type="curve" smooth="yes"/>
      <point x="46" y="134"/>
      <point x="198" y="-30"/>
    </contour>
  </outline>
</glyph>
<glyph name="two.dnom" format="2">
  <advance width="872"/>
  <outline>
    <contour>
      <point x="58" y="0" type="line"/>
      <point x="814" y="0" type="line"/>
      <point x="814" y="292" type="line"/>
      <point x="716" y="292"/>
      <point x="616" y="292"/>
      <point x="516" y="292" type="curve"/>
      <point x="390" y="292" type="line"/>
      <point x="428" y="224" type="line"/>
      <point x="554" y="298" type="line"/>
      <point x="736" y="406"/>
      <point x="810" y="520"/>
      <point x="810" y="654" type="curve" smooth="yes"/>
      <point x="810" y="842"/>
      <point x="676" y="954"/>
      <point x="430" y="954" type="curve" smooth="yes"/>
      <point x="288" y="954"/>
      <point x="146" y="920"/>
      <point x="52" y="886" type="curve"/>
      <point x="78" y="564" type="line"/>
      <point x="166" y="620"/>
      <point x="262" y="668"/>
      <point x="346" y="668" type="curve"/>
      <point x="414" y="668"/>
      <point x="450" y="644"/>
      <point x="450" y="596" type="curve" smooth="yes"/>
      <point x="450" y="506"/>
      <point x="362" y="434"/>
      <point x="198" y="320" type="curve"/>
      <point x="152" y="286"/>
      <point x="104" y="252"/>
      <point x="58" y="218" type="curve"/>
    </contour>
  </outline>
</glyph>
